<svg id="Capa_1" enable-background="new 0 0 512 512" height="512" viewBox="0 0 512 512" width="512" xmlns="http://www.w3.org/2000/svg"><g><g><path d="m504.424 387.951-97.956-179.414-135.633 248.424h233.589z" fill="#80e29d"/></g><g><path d="m372.01 271.651-101.175 185.31h202.35z" fill="#78d090"/></g><g><path d="m7.575 456.961h210.99l-113.034-207.02-97.956 179.407z" fill="#dd5790"/></g><g><path d="m218.565 456.961-89.877-164.609-89.873 164.609z" fill="#da387d"/></g><g><path d="m424.646 295.384 10.099 10.099 15.947-15.947c-15.687-28.732-44.223-80.999-44.223-80.999l-44.223 80.999 15.947 15.947 10.099-10.099 18.177 18.177z" fill="#d8e2f1"/></g><g><path d="m386.141 297.534-14.131-25.883-9.765 17.884 15.947 15.948z" fill="#b9cbea"/></g><g><path d="m123.709 336.788 10.099 10.099 15.947-15.947c-15.687-28.732-44.223-80.999-44.223-80.999l-44.223 80.999 15.947 15.947 10.099-10.099 18.177 18.177z" fill="#d8e2f1"/></g><g><path d="m105.531 354.966 18.177-18.177 10.099 10.099 15.947-15.947c-5.931-10.864-13.699-25.091-21.068-38.587l-30.29 55.479z" fill="#b9cbea"/></g><g><path d="m447.873 456.961-191.873-351.43-191.873 351.43z" fill="#5766cb"/></g><g><path d="m256 105.531-14.138 25.895c24.263 44.439 177.735 325.535 177.735 325.535h28.276z" fill="#3342aa"/></g><g><path d="m274.177 192.379 10.099 10.099 15.947-15.947c-15.687-28.733-44.223-81-44.223-81l-44.223 80.999 15.947 15.947 10.099-10.099 18.177 18.178z" fill="#d8e2f1"/></g><g><path d="m256 105.531-14.138 25.895c5.654 10.356 18.327 33.567 34.437 63.075l7.977 7.977 15.947-15.947c-15.687-28.733-44.223-81-44.223-81z" fill="#b9cbea"/></g><g><path d="m256 247.921-64.631 77.759h29.286l-55.542 178.745h181.774l-55.542-178.745h29.286z" fill="#ffe07d"/></g><g><g><path d="m256 70.186h86.848l-21.207-31.305 21.207-31.306h-86.848z" fill="#dd5790"/></g><g><path d="m175.586 252.816c-3.674-2.006-8.273-.653-10.278 3.018l-23.966 43.895-29.164-53.418c-1.328-2.432-3.877-3.945-6.648-3.945-2.77 0-5.32 1.513-6.647 3.944l-44.269 81.081c-.007.013-.014.025-.021.038l-13.628 24.96c-2.005 3.672-.653 8.273 3.018 10.277 1.153.63 2.396.928 3.623.928 2.681 0 5.279-1.427 6.654-3.946l8.846-16.201 8.793 8.793c2.958 2.958 7.753 2.958 10.711 0l4.743-4.743 12.822 12.822c1.479 1.479 3.417 2.218 5.355 2.218.543 0 1.084-.064 1.617-.18l-49.669 90.972c-2.004 3.672-.653 8.273 3.018 10.277 1.153.63 2.396.928 3.623.928 2.681 0 5.279-1.427 6.654-3.946l107.83-197.497c2.006-3.669.654-8.27-3.017-10.275zm-57.233 78.617-12.822 12.822-12.822-12.822c-2.958-2.958-7.753-2.958-10.711 0l-4.743 4.743-6.583-6.583 34.859-63.847 27.182 49.789-7.546 13.822c-2.39-.468-4.962.224-6.814 2.076z"/><path d="m34.285 380.432c-3.672-2.005-8.273-.653-10.277 3.018l-23.08 42.272c-2.005 3.672-.653 8.273 3.018 10.277 1.152.63 2.396.928 3.623.928 2.681 0 5.279-1.427 6.654-3.946l23.08-42.272c2.005-3.671.653-8.272-3.018-10.277z"/><path d="m511.072 384.318-53.668-98.295c-.005-.009-.01-.018-.015-.028l-15.35-28.114c-2.005-3.672-6.606-5.024-10.277-3.018-3.672 2.004-5.023 6.605-3.019 10.277l12.584 23.048-6.583 6.583-4.743-4.743c-2.959-2.958-7.753-2.958-10.712 0l-12.821 12.822-12.821-12.822c-2.959-2.958-7.753-2.958-10.712 0l-4.743 4.743-6.586-6.587 34.861-63.844 5.287 9.683c2.004 3.671 6.604 5.022 10.277 3.019 3.672-2.004 5.023-6.606 3.019-10.277l-11.934-21.858c-1.327-2.432-3.877-3.945-6.648-3.945-2.77 0-5.319 1.513-6.648 3.944l-40.47 74.114-95.777-175.423v-25.837h79.274c2.804 0 5.378-1.548 6.691-4.025 1.314-2.477 1.152-5.476-.421-7.797l-18.329-27.058 18.329-27.058c1.573-2.321 1.735-5.32.421-7.797-1.314-2.476-3.888-4.025-6.691-4.025h-86.847c-4.183 0-7.574 3.391-7.574 7.574v96.023l-66.181 121.215c-2.004 3.672-.653 8.273 3.018 10.277 3.674 2.007 8.273.654 10.277-3.018l18.035-33.032 8.793 8.793c2.958 2.958 7.753 2.958 10.711 0l4.743-4.743 12.822 12.822c1.479 1.479 3.417 2.218 5.355 2.218s3.877-.74 5.356-2.218l12.821-12.822 4.743 4.743c2.959 2.958 7.753 2.958 10.712 0l8.793-8.793 142.8 261.551c1.376 2.519 3.973 3.946 6.655 3.946 1.226 0 2.47-.299 3.622-.928 3.672-2.004 5.023-6.605 3.019-10.277l-76.594-140.288c2.026.071 4.075-.659 5.622-2.206l4.743-4.743 12.821 12.822c1.479 1.479 3.418 2.218 5.356 2.218s3.877-.74 5.356-2.218l12.821-12.822 4.743 4.743c2.959 2.958 7.753 2.958 10.712 0l8.793-8.793 48.883 89.532c1.376 2.519 3.973 3.946 6.655 3.946 1.226 0 2.47-.299 3.622-.928 3.672-2.003 5.023-6.604 3.019-10.276zm-195.702-341.189 13.198 19.484h-64.995v-47.464h64.995l-13.198 19.484c-1.738 2.565-1.738 5.93 0 8.496zm-31.094 148.637-4.743-4.743c-2.959-2.958-7.753-2.958-10.712 0l-12.821 12.822-12.822-12.822c-2.958-2.958-7.753-2.958-10.711 0l-4.743 4.743-6.583-6.583 34.859-63.847 34.859 63.847z"/><path d="m301.63 333.254h19.001c2.937 0 5.609-1.698 6.857-4.357s.845-5.799-1.033-8.058l-64.631-77.759c-1.439-1.731-3.573-2.733-5.824-2.733s-4.386 1.001-5.824 2.733l-64.631 77.759c-1.878 2.259-2.28 5.399-1.033 8.058s3.92 4.357 6.857 4.357h19.001l-52.49 168.923c-.714 2.299-.293 4.8 1.134 6.739s3.691 3.083 6.099 3.083h181.774c2.407 0 4.672-1.144 6.099-3.083 1.428-1.938 1.848-4.44 1.134-6.739zm-126.233 163.597 52.49-168.923c.714-2.299.293-4.8-1.134-6.739s-3.691-3.083-6.099-3.083h-13.142l48.488-58.336 48.487 58.336h-13.142c-2.407 0-4.672 1.144-6.099 3.083-1.428 1.938-1.848 4.44-1.134 6.739l52.49 168.923z"/></g></g></g></svg>