<svg height="480pt" viewBox="-40 0 480 480.00015" width="480pt" xmlns="http://www.w3.org/2000/svg"><path d="m119.996094 56h160v56h-160zm0 0" fill="#e0e0de"/><path d="m255.996094 56h24v56h-24zm0 0" fill="#d6d6d4"/><path d="m175.996094 80h16v24h-16zm0 0" fill="#4db7e5"/><path d="m207.996094 80h16v24h-16zm0 0" fill="#4db7e5"/><path d="m239.996094 80h16v24h-16zm0 0" fill="#4db7e5"/><path d="m143.996094 80h16v24h-16zm0 0" fill="#4db7e5"/><path d="m175.996094 80h16v8h-16zm0 0" fill="#419bc2"/><path d="m207.996094 80h16v8h-16zm0 0" fill="#419bc2"/><path d="m239.996094 80h16v8h-16zm0 0" fill="#419bc2"/><path d="m143.996094 80h16v8h-16zm0 0" fill="#419bc2"/><path d="m302.027344 127.03125-15.03125-15.03125h-176l-15 15.03125c-10.875 10.875-25.625 16.976562-41 16.96875 0 17.671875 14.324218 32 32 32h224c17.671875 0 32-14.328125 32-32-15.367188 0-30.105469-6.101562-40.96875-16.96875zm0 0" fill="#7eb457"/><path d="m303.027344 127.03125-15.03125-15.03125h-36.90625l-74.550782 64h135.457032c17.671875 0 32-14.328125 32-32-15.367188 0-30.105469-6.101562-40.96875-16.96875zm0 0" fill="#69a340"/><path d="m333.25 241.007812-21.253906-17.007812h-224l-21.257813 17.007812c-12.132812 9.703126-27.207031 14.992188-42.742187 14.992188 0 17.671875 14.324218 32 32 32h288c17.671875 0 32-14.328125 32-32-15.539063 0-30.613282-5.289062-42.746094-14.992188zm0 0" fill="#69a340"/><path d="m87.996094 176h224v48h-224zm0 0" fill="#e0e0de"/><path d="m287.996094 176h24v48h-24zm0 0" fill="#d6d6d4"/><path d="m55.996094 288h288v72h-288zm0 0" fill="#e0e0de"/><path d="m303.996094 288h40v72h-40zm0 0" fill="#d6d6d4"/><path d="m175.996094 312h16v24h-16zm0 0" fill="#4db7e5"/><path d="m207.996094 312h16v24h-16zm0 0" fill="#4db7e5"/><path d="m255.996094 312h16v24h-16zm0 0" fill="#4db7e5"/><path d="m287.996094 312h16v24h-16zm0 0" fill="#4db7e5"/><path d="m95.996094 312h16v24h-16zm0 0" fill="#4db7e5"/><path d="m127.996094 312h16v24h-16zm0 0" fill="#4db7e5"/><path d="m175.996094 312h16v8h-16zm0 0" fill="#419bc2"/><path d="m207.996094 312h16v8h-16zm0 0" fill="#419bc2"/><path d="m95.996094 312h16v8h-16zm0 0" fill="#419bc2"/><path d="m127.996094 312h16v8h-16zm0 0" fill="#419bc2"/><path d="m255.996094 312h16v8h-16zm0 0" fill="#419bc2"/><path d="m287.996094 312h16v8h-16zm0 0" fill="#419bc2"/><path d="m191.996094 288h-112l56-48zm0 0" fill="#d6d6d4"/><path d="m319.996094 288h-112l56-48zm0 0" fill="#d6d6d4"/><path d="m255.996094 176h-112l56-48zm0 0" fill="#d6d6d4"/><path d="m7.996094 472h384l-32-112h-320zm0 0" fill="#803a32"/><path d="m359.996094 360h-112l32 112h112zm0 0" fill="#733029"/><path d="m47.996094 400h32v16h-32zm0 0" fill="#914b43"/><path d="m295.996094 384h32v16h-32zm0 0" fill="#914b43"/><path d="m247.996094 416h32v16h-32zm0 0" fill="#914b43"/><path d="m319.996094 432h32v16h-32zm0 0" fill="#914b43"/><path d="m159.996094 384h32v16h-32zm0 0" fill="#914b43"/><path d="m79.996094 416h32v16h-32zm0 0" fill="#914b43"/><path d="m191.996094 432h32v16h-32zm0 0" fill="#914b43"/><g fill="#4db7e5"><path d="m175.996094 200h16v24h-16zm0 0"/><path d="m207.996094 200h16v24h-16zm0 0"/><path d="m255.996094 200h16v24h-16zm0 0"/><path d="m127.996094 200h16v24h-16zm0 0"/><path d="m127.996094 264h16v24h-16zm0 0"/><path d="m255.996094 264h16v24h-16zm0 0"/><path d="m191.996094 152h16v24h-16zm0 0"/></g><path d="m191.996094 152h16v8h-16zm0 0" fill="#419bc2"/><path d="m127.996094 200h16v8h-16zm0 0" fill="#419bc2"/><path d="m175.996094 200h16v8h-16zm0 0" fill="#419bc2"/><path d="m207.996094 200h16v8h-16zm0 0" fill="#419bc2"/><path d="m255.996094 200h16v8h-16zm0 0" fill="#419bc2"/><path d="m255.996094 264h16v8h-16zm0 0" fill="#419bc2"/><path d="m127.996094 264h16v8h-16zm0 0" fill="#419bc2"/><path d="m135.996094 56h128v24h-128zm0 0" fill="#d6d6d4"/><path d="m127.996094 40h-4c-11.046875 0-20-8.953125-20-20s8.953125-20 20-20h4v16h-4c-2.210938 0-4 1.789062-4 4s1.789062 4 4 4h4zm0 0" fill="#ffb531"/><path d="m275.996094 40h-4v-16h4c2.207031 0 4-1.789062 4-4s-1.792969-4-4-4h-4v-16h4c11.042968 0 20 8.953125 20 20s-8.957032 20-20 20zm0 0" fill="#ffb531"/><path d="m295.996094 80c13.253906 0 24-10.746094 24-24-15-.007812-29.003906-7.515625-37.3125-20l-2.6875-4h-160l-2.691406 4c-8.308594 12.484375-22.3125 19.992188-37.308594 20 0 13.253906 10.742187 24 24 24h40c7.242187 0 14.1875-2.878906 19.308594-8 5.125-5.121094 12.070312-7.996094 19.3125-8h30.066406c7.242187 0 14.1875 2.878906 19.3125 8 5.121094 5.121094 12.066406 8 19.308594 8zm0 0" fill="#7eb457"/><path d="m282.683594 36-2.6875-4h-51.503906l-32 32h16.191406c7.242187 0 14.1875 2.878906 19.3125 8 5.121094 5.121094 12.066406 8 19.308594 8h44.691406c13.253906 0 24-10.746094 24-24-15-.007812-29.003906-7.515625-37.3125-20zm0 0" fill="#69a340"/><path d="m175.996094 312h16v24h-16zm0 0"/><path d="m207.996094 312h16v24h-16zm0 0"/><path d="m255.996094 312h16v24h-16zm0 0"/><path d="m287.996094 312h16v24h-16zm0 0"/><path d="m95.996094 312h16v24h-16zm0 0"/><path d="m127.996094 312h16v24h-16zm0 0"/><path d="m39.996094 352c-3.574219.003906-6.710938 2.371094-7.691406 5.808594l-32 112c-.6875 2.410156-.203126 5.007812 1.308593 7.007812 1.511719 2.003906 3.871094 3.183594 6.382813 3.183594h384c2.507812 0 4.867187-1.179688 6.378906-3.183594 1.511719-2 1.996094-4.597656 1.308594-7.007812l-32-112c-.980469-3.4375-4.117188-5.804688-7.6875-5.808594h-8v-56.800781c18.609375-3.828125 31.972656-20.199219 32-39.199219 0-4.417969-3.582032-8-8-8-13.71875-.019531-27.023438-4.6875-37.746094-13.238281l-18.253906-14.609375v-36.953125c18.609375-3.828125 31.972656-20.199219 32-39.199219 0-4.417969-3.582032-8-8-8-13.253906.039062-25.96875-5.226562-35.3125-14.625l-15.035156-15.03125c-1.5-1.5-3.53125-2.34375-5.652344-2.34375v-16h8c17.671875 0 32-14.328125 32-32 0-4.417969-3.582032-8-8-8-11.503906-.003906-22.339844-5.402344-29.273438-14.582031 5.367188-5.828125 6.773438-14.28125 3.578125-21.53125-3.195312-7.25-10.382812-11.917969-18.304687-11.886719h-4v16h4c2.207031 0 4 1.789062 4 4s-1.792969 4-4 4h-152c-2.210938 0-4-1.789062-4-4s1.789062-4 4-4h4v-16h-4c-7.925782-.03125-15.113282 4.636719-18.304688 11.886719-3.195312 7.25-1.792968 15.703125 3.574219 21.53125-6.933594 9.179687-17.769531 14.578125-29.269531 14.582031-4.421875 0-8 3.582031-8 8 0 17.671875 14.324218 32 32 32h8v16c-2.125 0-4.15625.84375-5.65625 2.34375l-15.035156 15.03125c-9.34375 9.398438-22.058594 14.664062-35.308594 14.625-4.421875 0-8 3.582031-8 8 .023437 19 13.386718 35.371094 32 39.199219v36.960937l-18.257813 14.609375c-10.722656 8.550781-24.027343 13.214844-37.742187 13.230469-4.421875 0-8 3.582031-8 8 .023437 19 13.386718 35.371094 32 39.199219v56.800781zm341.390625 112h-362.785157l27.425782-96h307.933594zm-14.570313-200.558594c-3.230468 9.867188-12.4375 16.546875-22.820312 16.558594h-21.050782l-53.742187-46.070312c-1.449219-1.246094-3.296875-1.929688-5.207031-1.929688h45.167968l19.070313 15.257812c11.113281 8.863282 24.472656 14.46875 38.582031 16.183594zm-110.820312.558594v16h-26.402344l34.402344-29.464844 34.398437 29.464844h-26.398437v-16zm-61.050782 16-53.742187-46.070312c-1.449219-1.246094-3.296875-1.929688-5.207031-1.929688h128c-1.902344.007812-3.742188.691406-5.1875 1.929688l-53.765625 46.070312zm-66.949218-16v16h-26.402344l34.402344-29.464844 34.398437 29.464844h-26.398437v-16zm-32-80h208v32h-32v-16h-16v16h-32v-16h-16v16h-16v-16h-16v16h-32v-16h-16v16h-32zm128-80v-16h16v16zm-48-16v16h-16v-16zm16 0h16v16h-16zm0 64v16h-26.402344l34.402344-29.464844 34.398437 29.464844h-26.398437v-16zm105.375-19.3125c10.101562 10.164062 23.265625 16.730469 37.464844 18.6875-3.214844 9.902344-12.433594 16.609375-22.839844 16.625h-53.050782l-53.742187-46.070312c-1.449219-1.246094-3.296875-1.929688-5.207031-1.929688h84.6875zm-25.375-28.6875h-16v-16h16zm-182.328125-40.878906c14.035156-2.59375 26.417969-10.765625 34.328125-22.648438l.277344-.472656h151.441406l.3125.472656c7.898437 11.875 20.269531 20.046875 34.292968 22.648438-2.703124 5.4375-8.25 8.878906-14.324218 8.878906h-44.691406c-5.121094.015625-10.035157-2.019531-13.644532-5.65625-6.609375-6.644531-15.605468-10.371094-24.976562-10.34375h-30.058594c-9.371094-.027344-18.367188 3.699219-24.976562 10.34375-3.613282 3.632812-8.53125 5.667969-13.652344 5.65625h-40c-6.078125 0-11.625-3.441406-14.328125-8.878906zm38.328125 24.878906h16v16h-16zm-62.84375 63.375c14.199218-1.957031 27.363281-8.523438 37.464844-18.6875l12.6875-12.6875h84.691406c-1.902344.007812-3.742188.691406-5.1875 1.929688l-53.765625 46.070312h-53.046875c-10.410156-.015625-19.628906-6.722656-22.84375-16.625zm-32 112.066406c14.105468-1.722656 27.457031-7.324218 38.5625-16.183594l19.085937-15.257812h45.195313c-1.902344.007812-3.742188.691406-5.1875 1.929688l-53.765625 46.070312h-21.046875c-10.386719-.011719-19.59375-6.691406-22.824219-16.558594zm30.84375 32.558594h272v56h-272zm0 0"/><path d="m47.996094 400h32v16h-32zm0 0"/><path d="m295.996094 384h32v16h-32zm0 0"/><path d="m247.996094 416h32v16h-32zm0 0"/><path d="m319.996094 432h32v16h-32zm0 0"/><path d="m159.996094 384h32v16h-32zm0 0"/><path d="m79.996094 416h32v16h-32zm0 0"/><path d="m191.996094 432h32v16h-32zm0 0"/></svg>