<svg id="Capa_1" enable-background="new 0 0 512 512" height="512" viewBox="0 0 512 512" width="512" xmlns="http://www.w3.org/2000/svg"><g><g><path d="m70.13 7.5h371.74v497h-371.74z" fill="#d8e2f1"/></g><g><g><path d="m92.354 116.598h101.016v80.813h-101.016z" fill="#ffd064" transform="matrix(0 1 -1 0 299.866 14.142)"/></g><g><path d="m92.354 316.61h101.016v80.813h-101.016z" fill="#dd5790" transform="matrix(0 1 -1 0 499.878 214.155)"/></g></g><g><g><path d="m205.492 116.598h101.016v80.813h-101.016z" fill="#5766cb" transform="matrix(0 1 -1 0 413.004 -98.996)"/></g><g><path d="m205.492 316.61h101.016v80.813h-101.016z" fill="#e49824" transform="matrix(0 1 -1 0 613.016 101.016)"/></g></g><g><g><path d="m318.63 116.598h101.016v80.813h-101.016z" fill="#80e29d" transform="matrix(0 1 -1 0 526.142 -212.134)"/></g><g><path d="m318.63 316.61h101.016v80.813h-101.016z" fill="#ffd064" transform="matrix(0 1 -1 0 726.155 -12.122)"/></g></g><g><path d="m421.667 7.5h20.203v497h-20.203z" fill="#b9cbea"/></g><g><path d="m238.827-23.815h34.346v161.626h-34.346z" fill="#dd5790" transform="matrix(0 1 -1 0 312.998 -199.002)"/></g><g><path d="m94.955 106.496v101.016c0 4.142 3.358 7.5 7.5 7.5h80.813c4.142 0 7.5-3.358 7.5-7.5v-101.016c0-4.142-3.358-7.5-7.5-7.5h-80.813c-4.142 0-7.5 3.358-7.5 7.5zm15 7.5h65.813v86.016h-65.813z"/><path d="m102.455 279.663h49.498c4.142 0 7.5-3.358 7.5-7.5s-3.358-7.5-7.5-7.5h-49.498c-4.142 0-7.5 3.358-7.5 7.5s3.358 7.5 7.5 7.5z"/><path d="m102.455 247.337h80.813c4.142 0 7.5-3.358 7.5-7.5s-3.358-7.5-7.5-7.5h-80.813c-4.142 0-7.5 3.358-7.5 7.5s3.358 7.5 7.5 7.5z"/><path d="m94.955 407.524c0 4.142 3.358 7.5 7.5 7.5h80.813c4.142 0 7.5-3.358 7.5-7.5v-101.016c0-4.142-3.358-7.5-7.5-7.5h-80.813c-4.142 0-7.5 3.358-7.5 7.5zm15-93.516h65.813v86.016h-65.813z"/><path d="m102.455 479.675h49.498c4.142 0 7.5-3.358 7.5-7.5s-3.358-7.5-7.5-7.5h-49.498c-4.142 0-7.5 3.358-7.5 7.5s3.358 7.5 7.5 7.5z"/><path d="m102.455 447.35h80.813c4.142 0 7.5-3.358 7.5-7.5s-3.358-7.5-7.5-7.5h-80.813c-4.142 0-7.5 3.358-7.5 7.5s3.358 7.5 7.5 7.5z"/><path d="m303.907 106.496c0-4.142-3.358-7.5-7.5-7.5h-80.813c-4.142 0-7.5 3.358-7.5 7.5v101.016c0 4.142 3.358 7.5 7.5 7.5h80.813c4.142 0 7.5-3.358 7.5-7.5zm-15 93.516h-65.813v-86.016h65.813z"/><path d="m215.593 279.663h49.498c4.142 0 7.5-3.358 7.5-7.5s-3.358-7.5-7.5-7.5h-49.498c-4.142 0-7.5 3.358-7.5 7.5s3.358 7.5 7.5 7.5z"/><path d="m296.407 232.337h-80.813c-4.142 0-7.5 3.358-7.5 7.5s3.358 7.5 7.5 7.5h80.813c4.142 0 7.5-3.358 7.5-7.5s-3.358-7.5-7.5-7.5z"/><path d="m303.907 306.508c0-4.142-3.358-7.5-7.5-7.5h-80.813c-4.142 0-7.5 3.358-7.5 7.5v101.016c0 4.142 3.358 7.5 7.5 7.5h80.813c4.142 0 7.5-3.358 7.5-7.5zm-15 93.516h-65.813v-86.016h65.813z"/><path d="m215.593 464.675c-4.142 0-7.5 3.358-7.5 7.5s3.358 7.5 7.5 7.5h49.498c4.142 0 7.5-3.358 7.5-7.5s-3.358-7.5-7.5-7.5z"/><path d="m303.907 439.85c0-4.142-3.358-7.5-7.5-7.5h-80.813c-4.142 0-7.5 3.358-7.5 7.5s3.358 7.5 7.5 7.5h80.813c4.142 0 7.5-3.358 7.5-7.5z"/><path d="m417.045 106.496c0-4.142-3.358-7.5-7.5-7.5h-80.813c-4.142 0-7.5 3.358-7.5 7.5v101.016c0 4.142 3.358 7.5 7.5 7.5h80.813c4.142 0 7.5-3.358 7.5-7.5zm-15 93.516h-65.813v-86.016h65.813z"/><path d="m328.732 279.663h49.498c4.142 0 7.5-3.358 7.5-7.5s-3.358-7.5-7.5-7.5h-49.498c-4.142 0-7.5 3.358-7.5 7.5s3.358 7.5 7.5 7.5z"/><path d="m409.545 232.337h-80.813c-4.142 0-7.5 3.358-7.5 7.5s3.358 7.5 7.5 7.5h80.813c4.142 0 7.5-3.358 7.5-7.5s-3.358-7.5-7.5-7.5z"/><path d="m417.045 306.508c0-4.142-3.358-7.5-7.5-7.5h-80.813c-4.142 0-7.5 3.358-7.5 7.5v101.016c0 4.142 3.358 7.5 7.5 7.5h80.813c4.142 0 7.5-3.358 7.5-7.5zm-15 93.516h-65.813v-86.016h65.813z"/><path d="m328.732 464.675c-4.142 0-7.5 3.358-7.5 7.5s3.358 7.5 7.5 7.5h49.498c4.142 0 7.5-3.358 7.5-7.5s-3.358-7.5-7.5-7.5z"/><path d="m417.045 439.85c0-4.142-3.358-7.5-7.5-7.5h-80.813c-4.142 0-7.5 3.358-7.5 7.5s3.358 7.5 7.5 7.5h80.813c4.142 0 7.5-3.358 7.5-7.5z"/><path d="m441.87 0h-371.74c-4.142 0-7.5 3.358-7.5 7.5v356.804c0 4.142 3.358 7.5 7.5 7.5s7.5-3.358 7.5-7.5v-349.304h356.74v69.255c0 4.142 3.358 7.5 7.5 7.5s7.5-3.358 7.5-7.5v-76.755c0-4.142-3.358-7.5-7.5-7.5z"/><path d="m441.87 111.786c-4.142 0-7.5 3.358-7.5 7.5v377.714h-356.74v-97.661c0-4.142-3.358-7.5-7.5-7.5s-7.5 3.358-7.5 7.5v105.161c0 4.142 3.358 7.5 7.5 7.5h371.74c4.142 0 7.5-3.358 7.5-7.5v-385.214c0-4.142-3.358-7.5-7.5-7.5z"/><path d="m336.813 32.325h-161.626c-4.142 0-7.5 3.358-7.5 7.5v34.346c0 4.142 3.358 7.5 7.5 7.5h19.867c4.142 0 7.5-3.358 7.5-7.5s-3.358-7.5-7.5-7.5h-12.367v-19.346h146.626v19.346h-99.224c-4.142 0-7.5 3.358-7.5 7.5s3.358 7.5 7.5 7.5h106.724c4.142 0 7.5-3.358 7.5-7.5v-34.346c0-4.142-3.358-7.5-7.5-7.5z"/></g></g></svg>