<svg id="Capa_1" enable-background="new 0 0 512 512" height="512" viewBox="0 0 512 512" width="512" xmlns="http://www.w3.org/2000/svg"><g><g><path d="m225.695 347.925h60.61v37.376h-60.61z" fill="#d8e2f1"/></g><g><path d="m205.492 385.301h101.016v119.199h-101.016z" fill="#5766cb"/></g><g><path d="m280.244 385.301h26.264v119.199h-26.264z" fill="#3342aa"/></g><g><circle cx="256" cy="179.228" fill="#5766cb" r="171.728"/></g><g><path d="m369.342 50.228c26.593 30.243 42.728 69.906 42.728 113.342 0 94.843-76.885 171.728-171.728 171.728-43.437 0-83.1-16.134-113.342-42.727 31.472 35.791 77.594 58.385 129 58.385 94.843 0 171.728-76.885 171.728-171.728 0-51.406-22.594-97.529-58.386-129z" fill="#3342aa"/></g><g><circle cx="256" cy="179.228" fill="#d8e2f1" r="137.382"/></g><g><g><circle cx="256" cy="179.228" fill="#dd5790" r="88.894"/></g><g><circle cx="256" cy="160.54" fill="#f1d0a5" r="37.881"/></g><g><path d="m272.87 126.623c2.532 5.081 3.964 10.807 3.964 16.87 0 20.921-16.96 37.881-37.881 37.881-6.063 0-11.789-1.432-16.87-3.964 6.206 12.452 19.058 21.011 33.917 21.011 20.921 0 37.881-16.96 37.881-37.881 0-14.859-8.559-27.711-21.011-33.917z" fill="#f1b986"/></g><g><path d="m256 198.421c-28.79 0-53.498 17.456-64.135 42.356 16.183 16.86 38.932 27.345 64.135 27.345s47.952-10.486 64.135-27.345c-10.637-24.901-35.345-42.356-64.135-42.356z" fill="#80e29d"/></g><g><path d="m251.295 268c1.558.081 3.127.123 4.705.123 25.203 0 47.952-10.486 64.135-27.345-7.93-18.563-23.682-32.983-43.114-39.124 1.111 4.677 1.707 9.546 1.707 14.566.001 21.697-10.918 40.769-27.433 51.78z" fill="#78d090"/></g></g><g><path d="m205.492 462.375c-4.142 0-7.5 3.357-7.5 7.5v34.625c0 4.143 3.358 7.5 7.5 7.5s7.5-3.357 7.5-7.5v-34.625c0-4.143-3.358-7.5-7.5-7.5z"/><path d="m256 0c-98.826 0-179.228 80.401-179.228 179.228 0 85.859 60.691 157.799 141.423 175.202v23.371h-12.704c-4.142 0-7.5 3.357-7.5 7.5v49.559c0 4.143 3.358 7.5 7.5 7.5s7.5-3.357 7.5-7.5v-42.059h86.017v111.699c0 4.143 3.358 7.5 7.5 7.5s7.5-3.357 7.5-7.5v-119.199c0-4.143-3.358-7.5-7.5-7.5h-12.704v-23.407c36.147-7.832 69.427-26.744 94.705-54.483 2.79-3.062 2.57-7.806-.492-10.596-3.062-2.789-7.806-2.571-10.595.492-31.069 34.095-75.326 53.648-121.422 53.648-90.555 0-164.228-73.672-164.228-164.228s73.673-164.227 164.228-164.227 164.228 73.672 164.228 164.228c0 29.459-7.888 58.35-22.811 83.551-2.11 3.564-.932 8.164 2.632 10.274 3.564 2.112 8.165.933 10.275-2.632 16.292-27.513 24.903-59.047 24.903-91.193.001-98.827-80.401-179.228-179.227-179.228zm22.805 356.982v20.818h-45.609v-20.79c7.469.953 15.081 1.444 22.805 1.444 7.662.001 15.278-.501 22.804-1.472z"/><path d="m141.752 102.639c-3.557-2.121-8.16-.957-10.283 2.601-13.314 22.329-20.352 47.914-20.352 73.988 0 79.888 64.994 144.882 144.882 144.882s144.882-64.994 144.882-144.882-64.993-144.882-144.881-144.882c-38.288 0-74.417 14.851-101.733 41.815-2.948 2.91-2.979 7.659-.068 10.606 2.909 2.948 7.658 2.979 10.606.069 24.49-24.176 56.877-37.49 91.195-37.49 71.617 0 129.882 58.265 129.882 129.882s-58.265 129.881-129.882 129.881-129.882-58.265-129.882-129.882c0-23.371 6.306-46.299 18.236-66.307 2.121-3.557.957-8.16-2.602-10.281z"/><path d="m256 275.622c53.152 0 96.395-43.242 96.395-96.395s-43.243-96.394-96.395-96.394-96.395 43.242-96.395 96.395 43.243 96.394 96.395 96.394zm-55.042-36.497c10.709-20.325 31.791-33.204 55.042-33.204s44.334 12.879 55.042 33.204c-14.501 13.337-33.834 21.497-55.042 21.497s-40.541-8.16-55.042-21.497zm24.661-78.585c0-16.753 13.629-30.382 30.381-30.382s30.381 13.629 30.381 30.382c0 16.752-13.629 30.381-30.381 30.381s-30.381-13.629-30.381-30.381zm30.381-62.707c44.881 0 81.395 36.514 81.395 81.395 0 17.999-5.883 34.644-15.812 48.135-8.889-14.312-22.121-25.181-37.54-31.183 10.547-8.317 17.338-21.196 17.338-35.64 0-25.023-20.358-45.382-45.381-45.382s-45.381 20.358-45.381 45.382c0 14.444 6.791 27.323 17.338 35.64-15.419 6.002-28.652 16.871-37.54 31.183-9.929-13.492-15.812-30.137-15.812-48.135 0-44.881 36.514-81.395 81.395-81.395z"/></g></g></svg>