<svg id="filled_expand" height="512" viewBox="0 0 512 512" width="512" xmlns="http://www.w3.org/2000/svg" data-name="filled expand"><g id="_20_copy_2" data-name="20 copy 2"><g><g><path d="m240 240h32v96h-32z" fill="#ffb3b9"/><circle cx="256" cy="208" fill="#ffeae8" r="32"/><path d="m256 176a31.851 31.851 0 0 1 14.977 3.721l-6.977-83.721h-16l-6.977 83.721a31.851 31.851 0 0 1 14.977-3.721z" fill="#ffb3b9"/><circle cx="256" cy="384" fill="#ffeae8" r="48"/><g fill="#ff7b66"><path d="m208 384a47.9 47.9 0 0 0 2.742 16h90.516a48.052 48.052 0 0 0 0-32h-90.516a47.9 47.9 0 0 0 -2.742 16z"/><circle cx="256" cy="80" r="16"/></g></g><path d="m24 464h464v24h-464z" fill="#ff7b66"/><g><path d="m80 272h96v192h-96z" fill="#a3f0ff" transform="matrix(-1 0 0 -1 256 736)"/><path d="m88 272h80v-32l-8-16h-64l-8 16z" fill="#70e8ff"/><path d="m104 224h48l-8-32h-32z" fill="#a3f0ff"/><path d="m136 328h16v16h-16z"/><path d="m104 328h16v16h-16z"/><path d="m136 296h16v16h-16z"/><path d="m104 296h16v16h-16z"/><path d="m136 360h16v16h-16z"/><path d="m104 360h16v16h-16z"/><path d="m136 392h16v16h-16z"/><path d="m104 392h16v16h-16z"/><path d="m136 424h16v16h-16z"/><path d="m104 424h16v16h-16z"/><path d="m112 240h32v16h-32z"/></g><g><path d="m32 320h48v144h-48z" fill="#9cf" transform="matrix(-1 0 0 -1 112 784)"/><g><path d="m48 344h16v40h-16z"/><path d="m48 400h16v40h-16z"/></g></g><path d="m106.27 56.078a32 32 0 0 0 -34.27 31.922h-12a20 20 0 0 0 -20 20v12h64a32 32 0 0 0 2.27-63.922z" fill="#d6ebff"/><path d="m104 128h-64a8 8 0 0 1 -8-8v-12a28.032 28.032 0 0 1 28-28h4.815a40.164 40.164 0 0 1 11.895-21.245 39.69 39.69 0 0 1 30.11-10.655 40.089 40.089 0 0 1 37.08 37.081 39.666 39.666 0 0 1 -10.656 30.107 40.141 40.141 0 0 1 -29.244 12.712zm-56-16h56a24 24 0 0 0 23.94-25.719 24 24 0 0 0 -40.312-15.83 23.769 23.769 0 0 0 -7.628 17.549 8 8 0 0 1 -8 8h-12a12.013 12.013 0 0 0 -12 12z"/><g><path d="m424 464h-104l.923-24 55.077-392h48z" fill="#66b3ff"/><path d="m368 132q0-16.143.674-31.856l-47.751 339.856-.923 24h104v-78.2c-33.648-53.147-56-146.942-56-253.8z" fill="#9cf"/><path d="m352 384h48v16h-48z"/><path d="m352 424h48v16h-48z"/><path d="m360 344h16v16h-16z"/><path d="m392 80h16v16h-16z"/><path d="m392 112h16v16h-16z"/><path d="m392 144h16v16h-16z"/><path d="m392 176h16v16h-16z"/><path d="m392 208h16v16h-16z"/></g><g><path d="m480 464h-56v-240h16l40 40z" fill="#a3f0ff"/><path d="m488 456v-136h-16v136h-40v-224h4.687l35.313 35.313v36.687h16v-40a8 8 0 0 0 -2.343-5.657l-40-40a8 8 0 0 0 -5.657-2.343h-8v-168a8 8 0 0 0 -8-8h-48a8 8 0 0 0 -7.922 6.887l-55.078 392a8.046 8.046 0 0 0 -.071.805l-.629 16.308h-11.356l-13.01-26.021a56 56 0 0 0 24.015-43.579v-.03c.016-.378.028-.756.036-1.136v-.065c0-.178.006-.357.008-.536v-.089c0-.181 0-.362 0-.544s0-.363 0-.544v-.089c0-.179 0-.358-.008-.536v-.065c-.008-.38-.02-.758-.036-1.136v-.03a56.09 56.09 0 0 0 -31.949-48.192v-93.428a39.965 39.965 0 0 0 -1.387-64.959l-6.442-77.3a23.988 23.988 0 0 0 -8.171-40.35v-41.371h-16v41.371a23.988 23.988 0 0 0 -8.171 40.348l-2.468 29.617 15.945 1.328 2.055-24.664h1.278l5.371 64.451a40.27 40.27 0 0 0 -12.02 0l1.982-23.787-15.944-1.328-2.64 31.685a39.965 39.965 0 0 0 -1.388 64.959v93.428a56.092 56.092 0 0 0 -31.949 48.192v.04q-.024.563-.036 1.128v.069c0 .178-.006.356-.008.535v.089.544s0 .363 0 .544v.089c0 .179 0 .357.008.535v.069q.012.565.036 1.128v.04a56 56 0 0 0 24.015 43.574l-13.01 26.016h-27.056v-144h-16v144h-80v-176h80v16h16v-24a8 8 0 0 0 -8-8v-24a7.994 7.994 0 0 0 -.845-3.578l-8-16a8 8 0 0 0 -7.155-4.422h-1.754l-6.485-25.94a8 8 0 0 0 -7.761-6.06h-8v-24h-16v24h-8a8 8 0 0 0 -7.761 6.06l-6.485 25.94h-1.754a8 8 0 0 0 -7.155 4.422l-8 16a7.994 7.994 0 0 0 -.845 3.578v24a8 8 0 0 0 -8 8v40h-40a8 8 0 0 0 -8 8v64h16v-56h32v128h-32v-56h-16v56a8 8 0 0 0 -8 8v24a8 8 0 0 0 8 8h464a8 8 0 0 0 8-8v-24a8 8 0 0 0 -8-8zm-369.754-256h19.508l4 16h-27.508zm-22.246 41.889 4.944-9.889h54.112l4.944 9.889v22.111h-64zm320-185.889v297.861c-9.875-21.756-18.3-47.693-24.814-76.579-9.935-44.073-15.186-94.311-15.186-145.282 0-10.317.219-20.79.651-31.134l6.304-44.866zm-87.1 384.713 26.921-191.6 2.248-16 4.857-34.568c6.891 77.116 25.65 145.114 53.073 189.546v67.909h-87.686zm-45.844 15.287h-19.056v-16.57a55.575 55.575 0 0 0 9.634-2.274zm-59.036-48h63.96a39.96 39.96 0 0 1 -63.96 0zm-8.02-24.511c0-.085 0-.169.005-.254s0-.168 0-.252 0-.171.008-.257.005-.171.008-.257.008-.193.013-.29c0-.07 0-.139.009-.209.006-.126.014-.253.021-.379 0-.041 0-.082.007-.123.009-.131.018-.262.028-.393l.007-.111c.01-.13.021-.26.032-.39l.009-.113c.014-.152.028-.3.043-.454v-.04c.016-.162.034-.325.052-.487v-.01q.2-1.749.55-3.47h78.408a39.725 39.725 0 0 1 .65 4.469v.033c.013.155.026.309.038.464l.006.094c.01.136.02.272.029.409l.006.111c.008.13.015.26.022.39l.009.2c0 .1.009.2.013.3 0 .084 0 .168.008.253s.006.173.008.26 0 .167 0 .25 0 .171 0 .256v.511s0 .341 0 .511v.256s0 .167 0 .25 0 .173-.008.26 0 .169-.008.253c0 .1-.009.2-.013.3l-.009.2c-.007.13-.014.26-.022.39l-.006.111c-.009.137-.019.273-.029.409l-.006.094c-.012.155-.025.309-.038.464v.033a39.725 39.725 0 0 1 -.65 4.469h-78.39q-.351-1.721-.55-3.47v-.01c-.018-.162-.036-.325-.052-.487v-.04c-.015-.151-.029-.3-.043-.454l-.009-.113c-.011-.13-.022-.26-.032-.39l-.007-.111c-.01-.131-.019-.262-.028-.393 0-.041 0-.082-.007-.123-.007-.126-.015-.253-.021-.379 0-.07-.006-.139-.009-.209 0-.1-.009-.194-.013-.29s-.006-.171-.008-.257-.006-.171-.008-.257 0-.168 0-.252 0-.169-.005-.254c0-.17 0-.341 0-.511s-.018-.341-.018-.511zm40-295.489a8 8 0 1 1 8-8 8.009 8.009 0 0 1 -8 8zm-.959 96.019h.076l.224-.007h.164.157.338.338.157.164l.224.007h.076a24 24 0 1 1 -1.918 0zm-7.041 63.981h16v8h-16zm0 24h16v8h-16zm0 24h16v8h-16zm0 32v-8h16v8zm8 16a39.964 39.964 0 0 1 31.98 16h-63.96a39.964 39.964 0 0 1 31.98-16zm-17.634 93.156a55.575 55.575 0 0 0 9.634 2.274v16.57h-19.056zm241.634 42.844h-448v-8h448z"/><path d="m440 264h16v16h-16z"/><path d="m440 304h24v16h-24z"/><path d="m440 344h24v16h-24z"/><path d="m440 384h24v16h-24z"/><path d="m440 424h24v16h-24z"/></g></g></g></svg>