<svg id="Capa_1" enable-background="new 0 0 512 512" height="512" viewBox="0 0 512 512" width="512" xmlns="http://www.w3.org/2000/svg"><g><g><path d="m256 107.155-153.011 111.169 58.445 179.875h189.132l58.445-179.875z" fill="#dd5790"/></g><g><path d="m357.58 180.957c1.542 8.942 2.354 18.134 2.354 27.517 0 88.817-72.001 160.818-160.818 160.818-17.315 0-33.985-2.748-49.613-7.811l11.93 36.718h189.132l58.445-179.875z" fill="#da387d"/></g><g><g><path d="m256 502.155c-63.773 0-123.73-24.835-168.825-69.93s-69.929-105.05-69.929-168.824 24.834-123.73 69.929-168.824 105.052-69.93 168.825-69.93 123.729 24.835 168.824 69.93 69.93 105.051 69.93 168.824-24.835 123.729-69.93 168.824-105.051 69.93-168.824 69.93zm0-445.508c-114.004 0-206.754 92.749-206.754 206.754s92.75 206.754 206.754 206.754c114.005 0 206.754-92.749 206.754-206.754s-92.749-206.754-206.754-206.754z" fill="#5766cb"/></g></g><g><g><circle cx="256" cy="40.647" fill="#ffe07d" r="30.798"/></g></g><g><g><circle cx="473.702" cy="204.827" fill="#ffe07d" r="30.798"/></g></g><g><g><circle cx="385.426" cy="455.727" fill="#ffe07d" r="30.798"/></g></g><g><g><circle cx="126.574" cy="455.727" fill="#ffe07d" r="30.798"/></g></g><g><g><circle cx="256" cy="212.28" fill="#f1d0a5" r="42.961"/></g><g><path d="m275.133 173.815c2.872 5.763 4.496 12.256 4.496 19.133 0 23.727-19.234 42.961-42.961 42.961-6.876 0-13.37-1.624-19.133-4.496 7.038 14.122 21.614 23.829 38.465 23.829 23.727 0 42.961-19.234 42.961-42.961 0-16.852-9.706-31.428-23.828-38.466z" fill="#f1b986"/></g><g><path d="m176.951 334.29c0-43.658 35.391-79.049 79.049-79.049s79.049 35.391 79.049 79.049z" fill="#5766cb"/></g><g><path d="m281.777 275.433c0 24.696-12.481 46.389-31.318 58.857h84.59c0-35.347-23.201-65.271-55.204-75.385 1.252 5.302 1.932 10.832 1.932 16.528z" fill="#3342aa"/></g></g><g><g><circle cx="38.298" cy="204.827" fill="#ffe07d" r="30.798"/></g></g><g><path d="m512 204.826c0-17.91-12.36-32.983-28.998-37.15-12.327-29.248-30.093-55.612-52.878-78.397-10.776-10.78-22.552-20.585-34.999-29.143-3.412-2.35-8.081-1.482-10.43 1.931-2.347 3.413-1.481 8.082 1.932 10.429 11.693 8.04 22.759 17.255 32.89 27.39 19.765 19.764 35.509 42.382 46.917 67.343-5.785 1.116-11.112 3.531-15.658 6.939-29.516-64.322-88.714-109.937-158.284-121.905 1.17-3.666 1.806-7.568 1.806-11.616 0-1.838-.138-3.643-.39-5.413 22.087 3.617 43.384 10.376 63.449 20.176 1.06.518 2.181.763 3.285.763 2.776 0 5.445-1.548 6.745-4.211 1.817-3.722.274-8.213-3.448-10.03-23.99-11.716-49.625-19.358-76.247-22.76-6.895-10.145-18.528-16.823-31.692-16.823s-24.796 6.677-31.692 16.822c-54.255 6.92-103.437 31.105-142.43 70.108-22.788 22.787-40.553 49.151-52.879 78.398-16.638 4.166-28.999 19.239-28.999 37.149 0 10.785 4.488 20.536 11.686 27.503-1.284 10.258-1.936 20.691-1.936 31.072 0 65.784 25.615 127.623 72.126 174.123 2.547 2.547 5.2 5.078 7.913 7.568-.979 3.379-1.514 6.944-1.514 10.634 0 21.118 17.181 38.299 38.298 38.299 8.894 0 17.083-3.056 23.59-8.161 33.059 15.773 68.633 23.787 105.835 23.787 37.203 0 72.778-8.014 105.836-23.787 6.508 5.105 14.697 8.161 23.59 8.161 21.117 0 38.298-17.181 38.298-38.299 0-3.69-.535-7.255-1.514-10.634 2.711-2.488 5.363-5.018 7.912-7.567 46.512-46.501 72.127-108.339 72.127-174.124 0-10.383-.652-20.815-1.935-31.072 7.201-6.966 11.688-16.717 11.688-27.503zm-38.298-23.297c12.847 0 23.299 10.451 23.299 23.298s-10.452 23.299-23.299 23.299-23.298-10.452-23.298-23.299 10.451-23.298 23.298-23.298zm-18.452 81.873c0 60.033-26.67 116.084-73.235 154.187-3.408.302-6.691 1.045-9.785 2.184l-13.477-22.502 55.831-171.829 25.751-1.851c3.179 5.631 7.738 10.381 13.219 13.786 1.126 8.575 1.696 17.311 1.696 26.025zm-199.25 199.25c-33.315 0-66.219-8.423-95.335-24.343-2.066-4.026-4.818-7.642-8.11-10.687l13.13-21.923h180.631l13.13 21.923c-3.292 3.045-6.045 6.661-8.11 10.688-29.117 15.919-62.021 24.342-95.336 24.342zm-70.455-304.308c-2.435-3.352-7.125-4.095-10.476-1.659l-74.273 53.962-24.418-1.755c.142-1.336.218-2.692.218-4.065 0-6.52-1.642-12.663-4.528-18.043 27.1-64.876 86.099-110.634 155.424-120.595 5.425 6.049 12.739 10.367 21.007 12.016v25.131l-44.893 32.616c-3.351 2.435-4.094 7.125-1.66 10.476 2.435 3.353 7.125 4.096 10.476 1.659l43.578-31.661 144.195 104.763-55.078 169.51h-178.234l-55.077-169.51 72.079-52.369c3.351-2.435 4.094-7.125 1.66-10.476zm254.387 28.439c-2.886 5.38-4.528 11.523-4.528 18.043 0 1.373.076 2.729.218 4.065l-24.417 1.755-147.705-107.312v-25.131c8.268-1.648 15.583-5.967 21.008-12.016 69.324 9.962 128.323 55.722 155.424 120.596zm-183.932-169.434c12.847 0 23.299 10.451 23.299 23.298s-10.453 23.299-23.299 23.299-23.298-10.452-23.298-23.299 10.451-23.298 23.298-23.298zm-163.516 82.536c34.663-34.672 77.891-56.872 125.607-64.655-.252 1.771-.39 3.578-.39 5.417 0 4.049.636 7.95 1.806 11.616-69.569 11.968-128.767 57.583-158.283 121.905-4.546-3.408-9.873-5.822-15.658-6.938 11.407-24.961 27.151-47.579 46.918-67.345zm-54.186 81.644c12.847 0 23.298 10.451 23.298 23.298s-10.452 23.299-23.298 23.299-23.298-10.453-23.298-23.3 10.451-23.297 23.298-23.297zm54.185 245.389c-43.678-43.669-67.733-101.739-67.733-163.516 0-7.462.366-14.951 1.073-22.374 3.913 1.352 8.108 2.097 12.475 2.097 1.501 0 2.98-.096 4.437-.265-.652 6.812-.985 13.684-.985 20.542 0 38.487 10.373 76.261 29.998 109.235 1.403 2.356 3.895 3.665 6.452 3.665 1.304 0 2.626-.341 3.828-1.056 3.56-2.119 4.728-6.722 2.609-10.281-18.244-30.655-27.887-65.775-27.887-101.563 0-8.711.57-17.447 1.696-26.024 5.482-3.405 10.04-8.156 13.219-13.786l25.751 1.851 55.831 171.83-13.476 22.502c-3.097-1.14-6.382-1.883-9.793-2.185-9.276-7.596-17.916-16.047-25.691-25.173-2.687-3.155-7.421-3.533-10.573-.846-3.153 2.686-3.532 7.42-.845 10.572 5.597 6.57 11.609 12.82 17.964 18.685-5.362 2.428-10.074 6.046-13.781 10.53-1.552-1.473-3.082-2.953-4.569-4.44zm34.091 52.108c-12.847 0-23.298-10.452-23.298-23.299s10.452-23.298 23.298-23.298 23.298 10.451 23.298 23.298-10.452 23.299-23.298 23.299zm33.647-5.021c2.735-5.016 4.374-10.708 4.612-16.755 28.396 13.372 59.612 20.401 91.166 20.401 31.555 0 62.77-7.03 91.167-20.401.238 6.047 1.877 11.739 4.613 16.755-30.008 13.692-62.18 20.646-95.779 20.646-33.599.001-65.771-6.954-95.779-20.646zm225.205 5.021c-12.847 0-23.299-10.452-23.299-23.299s10.452-23.298 23.299-23.298 23.298 10.451 23.298 23.298-10.451 23.299-23.298 23.299zm101.824-215.624c0 61.777-24.055 119.849-67.733 163.517-1.487 1.487-3.017 2.968-4.569 4.438-3.709-4.485-8.424-8.105-13.789-10.533 44.08-40.58 69.091-97.131 69.091-157.422 0-6.858-.333-13.731-.985-20.542 1.457.169 2.935.265 4.437.265 4.367 0 8.562-.745 12.475-2.097.707 7.422 1.073 14.91 1.073 22.374z"/><path d="m176.951 341.79h158.098c4.143 0 7.5-3.357 7.5-7.5 0-37.278-23.69-69.126-56.805-81.282 12.548-9.189 20.717-24.019 20.717-40.728 0-27.825-22.637-50.462-50.462-50.462-27.824 0-50.461 22.637-50.461 50.462 0 16.709 8.169 31.539 20.716 40.728-33.115 12.156-56.804 44.004-56.804 81.282.001 4.143 3.359 7.5 7.501 7.5zm43.588-129.509c0-19.554 15.907-35.462 35.461-35.462s35.462 15.908 35.462 35.462-15.909 35.46-35.462 35.46-35.461-15.907-35.461-35.46zm35.461 50.46c36.92 0 67.397 28.109 71.159 64.049h-142.318c3.762-35.939 34.24-64.049 71.159-64.049z"/></g></g></svg>