<svg id="Filled_expand" height="512" viewBox="0 0 512 512" width="512" xmlns="http://www.w3.org/2000/svg" data-name="Filled expand"><g id="_15_copy_2" data-name="15 copy 2"><g><circle cx="256" cy="248" fill="#fa8c50" r="152"/><g><g><rect fill="#d32a20" height="40" rx="10" width="128" x="192" y="272"/><path d="m288 272h-64l16-144h32z" fill="#fa4231"/><path d="m280 192-24 16-24-16v-32l24 16 24-16z" fill="#feeaeb"/><path d="m242 64h28a10 10 0 0 1 10 10v14a0 0 0 0 1 0 0h-48a0 0 0 0 1 0 0v-14a10 10 0 0 1 10-10z" fill="#d32a20"/><path d="m232 88h48a0 0 0 0 1 0 0v30a10 10 0 0 1 -10 10h-28a10 10 0 0 1 -10-10v-30a0 0 0 0 1 0 0z" fill="#feeaeb"/><path d="m232 272h48v40h-48z" fill="#feeaeb"/><path d="m280 400 80 72v16h64v-16l-104-104-24-56h-80l-24 56-104 104v16h64v-16l80-72z" fill="#fa4231"/><path d="m429.657 466.343-16-16-11.314 11.314 13.657 13.656v4.687h-48v-8a8 8 0 0 0 -2.648-5.946l-4.31-3.879 10.458-31.364 14.847 14.846 11.314-11.314-70.911-70.91-18.617-43.433h1.867a18.021 18.021 0 0 0 18-18v-20a18.021 18.021 0 0 0 -18-18h-14.84l-10.809-97.286.087-.058-.112-.167-3.769-33.918a17.989 17.989 0 0 0 7.443-14.571v-44a18.021 18.021 0 0 0 -18-18h-6v-40h-16v40h-6a18.021 18.021 0 0 0 -18 18v44a17.989 17.989 0 0 0 7.443 14.571l-3.769 33.918-.112.167.087.058-10.809 97.286h-14.84a18.021 18.021 0 0 0 -18 18v20a18.021 18.021 0 0 0 18 18h1.867l-18.613 43.433-102.911 102.91a8 8 0 0 0 -2.343 5.657v16a8 8 0 0 0 8 8h64a8 8 0 0 0 8-8v-12.438l75.07-67.562h41.86l75.07 67.562v12.438a8 8 0 0 0 8 8h64a8 8 0 0 0 8-8v-16a8 8 0 0 0 -2.343-5.657zm-81.59-15.843-29.442-26.5h38.275zm-32.967-42.5 8.4-25.189 25.186 25.189zm-75.773-201.5 12.235 8.157a8 8 0 0 0 8.876 0l12.235-8.157 6.389 57.5h-46.124zm.673 73.5h32v24h-32zm32.685 40-16.685 12.977-16.685-12.977zm-29.715 23.111-18.306 14.239-13.577-13.577 8.184-19.1zm13.03 10.134 19.936 15.506-19.936 19.936-19.936-19.936zm31.336 4.105-18.306-14.239 23.7-18.433 8.184 19.1zm24.664-75.35v20a2 2 0 0 1 -2 2h-22v-24h22a2 2 0 0 1 2 2zm-72-164v-22h32v22a2 2 0 0 1 -2 2h-28a2 2 0 0 1 -2-2zm24.84 18 2.534 22.8-11.374 7.585-11.374-7.585 2.534-22.8zm-24.84-62a2 2 0 0 1 2-2h28a2 2 0 0 1 2 2v6h-32zm11.562 108.656a8 8 0 0 0 8.876 0l8.925-5.95 1.321 11.89-14.684 9.789-14.684-9.785 1.321-11.89zm-51.562 119.344v-20a2 2 0 0 1 2-2h22v24h-22a2 2 0 0 1 -2-2zm-44.9 122h38.275l-29.442 26.5zm41.8-16h-33.586l25.19-25.189zm-52.9 64v8h-48v-4.687l44.5-44.5 10.455 31.365-4.31 3.879a8 8 0 0 0 -2.645 5.943zm88-80a8 8 0 0 0 -5.352 2.054l-13.485 12.136-12.611-37.835 3.747-8.742 32.387 32.387zm48 0h-4.686l32.386-32.387 3.747 8.742-12.61 37.835-13.485-12.136a8 8 0 0 0 -5.352-2.054z"/><path d="m248 232h16v16h-16z"/></g><path d="m449.531 352.048a24 24 0 0 0 -25.531 23.952h-4a20 20 0 0 0 -20 20v4h48a24 24 0 0 0 1.531-47.952z" fill="#fdd1b9"/><path d="m448 408h-48a8 8 0 0 1 -8-8v-4a28.043 28.043 0 0 1 24.982-27.839 32.138 32.138 0 0 1 9.107-15.482 32 32 0 0 1 45.232 45.232 32.121 32.121 0 0 1 -23.321 10.089zm-39.314-16h39.314a16 16 0 0 0 15.968-17.035 16.174 16.174 0 0 0 -14.932-14.933 16 16 0 0 0 -17.036 15.968 8 8 0 0 1 -8 8h-4a12.02 12.02 0 0 0 -11.314 8z"/><path d="m89.531 40.048a24 24 0 0 0 -25.531 23.952h-4a20 20 0 0 0 -20 20v4h48a24 24 0 0 0 1.531-47.952z" fill="#fdd1b9"/><path d="m88 96h-48a8 8 0 0 1 -8-8v-4a28.041 28.041 0 0 1 24.982-27.838 32.136 32.136 0 0 1 9.107-15.483 31.78 31.78 0 0 1 23.938-8.616 32 32 0 0 1 -2.027 63.937zm-39.314-16h39.314a16 16 0 0 0 15.968-17.036 16.174 16.174 0 0 0 -14.932-14.931 16 16 0 0 0 -17.036 15.967 8 8 0 0 1 -8 8h-4a12.02 12.02 0 0 0 -11.314 8z"/></g><path d="m154.944 372.053a160.045 160.045 0 0 1 42.107-272.841l5.9 14.873a144.043 144.043 0 0 0 -37.893 245.569z"/><path d="m357.056 372.053-10.112-12.4a144.042 144.042 0 0 0 -44.719-248.077l5.132-15.154a160.041 160.041 0 0 1 49.7 275.63z"/></g></g></svg>