<svg id="Layer_5" enable-background="new 0 0 64 64" height="512" viewBox="0 0 64 64" width="512" xmlns="http://www.w3.org/2000/svg"><g><g><g><path d="m48 8c0 3.31-7.16 6-16 6s-16-2.69-16-6 7.16-6 16-6 16 2.69 16 6zm-5 0c0-1.1-4.92-2-11-2s-11 .9-11 2 4.92 2 11 2 11-.9 11-2z" fill="#69d6f4"/></g><g><path d="m10 54c0 2.21-.9 4.21-2.34 5.66-1.45 1.44-3.45 2.34-5.66 2.34v-42.33c0-2.39.97-4.56 2.54-6.13s3.74-2.54 6.13-2.54c2.14 0 4.21.79 5.8 2.23l7.53 6.77.14.23c-4.28 2.64-7.14 7.37-7.14 12.77 0 1.93.37 3.78 1.04 5.48l-.04.01v.02 15.49c0 4.42-3.58 8-8 8z" fill="#ccd1d9"/></g><g><path d="m18.04 38.48c1.46 3.73 4.38 6.74 8.06 8.31l-.1.21v7c0 4.42-3.58 8-8 8v-8-15.49-.02z" fill="#ccd1d9"/></g><g><path d="m54 54v8c-4.42 0-8-3.58-8-8v-15.49-.02l-.04-.01c.67-1.7 1.04-3.55 1.04-5.48 0-5.4-2.86-10.13-7.14-12.77l.14-.23 7.53-6.77c1.59-1.44 3.66-2.23 5.8-2.23 2.39 0 4.56.97 6.13 2.54s2.54 3.74 2.54 6.13v42.33c-2.21 0-4.21-.9-5.66-2.34-1.44-1.45-2.34-3.45-2.34-5.66z" fill="#ccd1d9"/></g><g><path d="m46 38.51v15.49 8c-4.42 0-8-3.58-8-8v-7l-.1-.21c3.68-1.57 6.6-4.58 8.06-8.31l.04.01z" fill="#ccd1d9"/></g><g><path d="m47 33c0 1.93-.37 3.78-1.04 5.48-1.46 3.73-4.38 6.74-8.06 8.31-1.81.78-3.81 1.21-5.9 1.21s-4.09-.43-5.9-1.21c-3.68-1.57-6.6-4.58-8.06-8.31-.67-1.7-1.04-3.55-1.04-5.48 0-5.4 2.86-10.13 7.14-12.77 2.28-1.42 4.98-2.23 7.86-2.23s5.58.81 7.86 2.23c4.28 2.64 7.14 7.37 7.14 12.77z" fill="#ffc729"/></g><g><circle cx="32" cy="33" fill="#fcd770" r="11"/></g></g><g><path d="m33 30c.551 0 1 .448 1 1h2c0-1.654-1.346-3-3-3v-3h-2v3h-3v3c0 1.654 1.346 3 3 3h2c.551 0 1 .448 1 1v1h-3c-.551 0-1-.448-1-1h-2c0 1.654 1.346 3 3 3v3h2v-3h3v-3c0-1.654-1.346-3-3-3h-2c-.551 0-1-.448-1-1v-1z"/><path d="m32 21c-6.617 0-12 5.383-12 12s5.383 12 12 12 12-5.383 12-12-5.383-12-12-12zm0 22c-5.514 0-10-4.486-10-10s4.486-10 10-10 10 4.486 10 10-4.486 10-10 10z"/><path d="m53.328 10c-2.394 0-4.692.882-6.47 2.483l-7.196 6.476c-2.277-1.247-4.888-1.959-7.662-1.959s-5.385.712-7.662 1.959l-7.196-6.476c-1.778-1.601-4.076-2.483-6.47-2.483-5.333 0-9.672 4.339-9.672 9.672v43.328h1c2.826 0 5.349-1.312 7-3.356v3.356h1c2.826 0 5.349-1.312 7-3.356v3.356h1c4.962 0 9-4.037 9-9v-5.811c1.575.52 3.253.811 5 .811s3.425-.291 5-.811v5.811c0 4.963 4.038 9 9 9h1v-3.356c1.651 2.044 4.174 3.356 7 3.356h1v-3.356c1.651 2.044 4.174 3.356 7 3.356h1v-43.328c0-5.333-4.339-9.672-9.672-9.672zm-42.328 50.929v-6.929-26h-2v26c0 3.521-2.612 6.442-6 6.929v-41.257c0-4.231 3.442-7.672 7.672-7.672 1.899 0 3.721.699 5.132 1.97l6.793 6.113c-3.989 2.912-6.597 7.61-6.597 12.917 0 1.94.365 3.792 1 5.515v15.485c0 3.521-2.612 6.442-6 6.929zm14-6.929c0 3.521-2.612 6.442-6 6.929v-6.929-11.708c.713.994 1.536 1.901 2.453 2.708h-.453v2h2v-.782c.633.433 1.306.807 2 1.147zm-7-21c0-7.72 6.28-14 14-14s14 6.28 14 14-6.28 14-14 14-14-6.28-14-14zm27 27.929c-3.388-.486-6-3.408-6-6.929v-6.635c.694-.34 1.367-.714 2-1.147v.782h2v-2h-.453c.917-.807 1.74-1.714 2.453-2.708v11.708zm16 0c-3.388-.486-6-3.408-6-6.929v-26h-2v26 6.929c-3.388-.486-6-3.408-6-6.929v-15.485c.635-1.722 1-3.575 1-5.515 0-5.307-2.608-10.005-6.597-12.917l6.793-6.113c1.411-1.271 3.233-1.97 5.132-1.97 4.23 0 7.672 3.441 7.672 7.672z"/><path d="m32 15c8.241 0 17-2.453 17-7s-8.759-7-17-7-17 2.453-17 7 8.759 7 17 7zm0-12c8.585 0 15 2.64 15 5s-6.415 5-15 5-15-2.64-15-5 6.415-5 15-5z"/><path d="m32 11c3.608 0 12-.292 12-3s-8.392-3-12-3-12 .292-12 3 8.392 3 12 3zm0-4c4.849 0 8.022.54 9.395 1-1.373.46-4.546 1-9.395 1s-8.022-.54-9.395-1c1.373-.46 4.546-1 9.395-1z"/><path d="m53 24h2v2h-2z"/><path d="m9 24h2v2h-2z"/><path d="m57 49h2v2h-2z"/><path d="m57 45h2v2h-2z"/><path d="m57 53h2v2h-2z"/><path d="m49 49h2v2h-2z"/><path d="m49 53h2v2h-2z"/><path d="m49 45h2v2h-2z"/><path d="m41 49h2v2h-2z"/><path d="m41 53h2v2h-2z"/><path d="m21 53h2v2h-2z"/><path d="m21 49h2v2h-2z"/><path d="m13 49h2v2h-2z"/><path d="m13 45h2v2h-2z"/><path d="m13 53h2v2h-2z"/><path d="m5 45h2v2h-2z"/><path d="m5 49h2v2h-2z"/><path d="m5 53h2v2h-2z"/></g></g></svg>