<svg id="Capa_1" enable-background="new 0 0 512 512" height="512" viewBox="0 0 512 512" width="512" xmlns="http://www.w3.org/2000/svg"><g><path d="m374.79 256.887h31.341v167.547h-31.341z" fill="#ddebfd" transform="matrix(.819 -.574 .574 .819 -124.781 285.567)"/><path d="m355.246 263.049-25.673 17.976 28.222 40.305c4.568-2.45 9.035-5.181 13.375-8.219 4.339-3.038 8.434-6.302 12.298-9.757z" fill="#bed9fd"/><path d="m438.395 381.066-26.361 18.458c-4.533 3.174-5.635 9.422-2.461 13.956l49.051 70.052c1.475 2.107 4.379 2.619 6.485 1.144l35.149-24.611c2.107-1.475 2.619-4.379 1.144-6.485l-49.051-70.052c-3.174-4.535-9.423-5.637-13.956-2.462z" fill="#8c818f"/><path d="m173.994 31.515c-64.211 44.961-76.735 137.861-27.975 207.498s140.342 89.641 204.552 44.681 76.735-137.861 27.975-207.498-140.341-89.642-204.552-44.681zm160.358 229.015c-51.336 35.946-125.43 19.017-165.169-37.737s-30.305-132.17 21.03-168.115 125.431-19.017 165.17 37.736 30.305 132.171-21.031 168.116z" fill="#eec06b"/><path d="m12.712 405.655 84.806-49.104 58.358 58.358-49.104 84.806c-3.862 6.669-13.615 6.289-16.946-.661l-24.77-51.684-51.684-24.77c-6.949-3.33-7.329-13.083-.66-16.945z" fill="#bed9fd"/><path d="m71.117 472.499h-26.476c-2.588-.004-4.707-2.123-4.711-4.711v-26.477c-.004-2.754 1.212-5.362 3.348-7.1l72.725-59.173 21.388 21.388-59.173 72.725c-1.739 2.136-4.347 3.352-7.101 3.348z" fill="#ddebfd"/><path d="m175.391 391.169 9.751-9.751c15.177-15.177 15.466-40.307.002-55.19-14.986-14.424-38.828-14.249-53.6.523l-10.286 10.286c-1.372 1.372-1.372 3.596 0 4.967l49.166 49.166c1.372 1.371 3.596 1.371 4.967-.001z" fill="#ddebfd"/><path d="m185.145 326.228c-1.523-1.466-3.141-2.772-4.827-3.936 6.439 11.247 1.322 29.83-12.518 43.669l-10.084 10.084c-.439.439-.927.765-1.42.996l14.129 14.129c1.372 1.372 3.596 1.372 4.967 0l9.751-9.751c15.177-15.178 15.466-40.308.002-55.191z" fill="#bed9fd"/><g><path d="m510.198 453.094-51.717-73.86c-4.096-5.849-11.144-8.418-17.739-7.127l-68.012-97.133c51.592-50.85 58.121-137.111 11.952-203.048-24.665-35.224-60.54-59.493-101.018-68.335-40.704-8.891-81.176-1.143-113.963 21.816-19.805 13.868-35.817 32.87-46.305 54.953-1.777 3.741-.185 8.215 3.557 9.992 3.741 1.775 8.215.184 9.992-3.557 9.51-20.023 23.426-36.544 41.359-49.101 29.317-20.528 65.596-27.435 102.16-19.448 36.786 8.035 69.435 30.155 91.932 62.284 46.307 66.133 34.584 154.524-26.131 197.037-29.317 20.527-65.596 27.436-102.16 19.449-36.786-8.035-69.435-30.155-91.932-62.284-24.246-34.628-33.561-77.193-25.556-116.782.821-4.06-1.805-8.016-5.864-8.837-4.058-.824-8.017 1.805-8.837 5.864-8.815 43.595 1.38 90.38 27.971 128.357 24.665 35.225 60.54 59.493 101.018 68.335 33.609 7.34 66.048 3.167 93.873-10.113l68.005 97.127c-1.102 1.826-1.882 3.851-2.264 6.014-.813 4.609.218 9.258 2.902 13.091l51.718 73.86c1.459 2.084 3.785 3.198 6.149 3.198 1.486 0 2.986-.44 4.295-1.357 3.393-2.376 4.217-7.052 1.842-10.445l-51.718-73.86c-.521-.744-.485-1.499-.417-1.883s.292-1.106 1.037-1.627l26.014-18.213c.012-.009.023-.019.035-.028l.309-.217c1.14-.798 2.714-.52 3.51.619l51.717 73.86c2.376 3.393 7.054 4.218 10.445 1.842 3.392-2.375 4.216-7.051 1.841-10.443zm-155.331-163.242c2.245-1.572 4.426-3.204 6.551-4.885l66.174 94.508-13.386 9.373-66.182-94.523c2.311-1.427 4.601-2.903 6.843-4.473z"/><path d="m338.648 266.691c16.11-11.28 28.049-26.339 36.562-43.132.061-.121.123-.241.18-.364 10.328-21.535 14.126-46.344 10.987-71.21-.003-.03-.007-.06-.011-.09-2.785-21.944-10.971-43.93-24.848-63.748-41.058-58.637-119.49-78.863-175.597-39.577-26.585 18.615-43.563 47.545-47.808 81.461-4.209 33.635 4.645 68.114 24.932 97.086 41.182 58.814 119.66 78.746 175.603 39.574zm-185.651-134.798c.916-7.323 2.508-14.374 4.73-21.087l15.99 22.835-21.605 15.128c-.109-5.63.183-11.268.885-16.876zm29.322 14.033 27.505 39.281-38.615 27.038c-8.947-14.437-14.866-30.16-17.517-46.274zm54.095-101.576 21.325 30.455-29.721 20.812-27.184-38.824c10.946-6.464 22.974-10.636 35.58-12.443zm29.928 42.74 27.507 39.283-29.723 20.812-27.505-39.283zm87.011 15.928c9.088 14.678 14.875 30.456 17.489 46.28l-28.605 20.03-27.499-39.272zm13.476 101.43-15.989-22.834 21.605-15.128c.275 13.095-1.624 25.952-5.616 37.962zm-36.877-26.517-29.724 20.814-27.499-39.273 29.723-20.812zm-41.804 92.982-21.331-30.463 29.727-20.816 27.189 38.831c-10.948 6.464-22.976 10.641-35.585 12.448zm-29.934-42.749-27.5-39.273 29.729-20.816 27.499 39.273zm-6.374-72.376-29.729 20.816-27.506-39.281 29.73-20.818zm-72.028 68.744 38.616-27.039 27.501 39.274-28.631 20.048c-14.233-8.002-26.981-18.94-37.486-32.283zm53.108 39.654 21.611-15.133 15.997 22.846c-7.07-.208-14.242-1.125-21.438-2.769-5.514-1.26-10.914-2.915-16.17-4.944zm103.097-14.328-27.186-38.827 29.724-20.814 21.32 30.448c-5.923 11.065-13.903 20.997-23.858 29.193zm8.735-159.127-38.617 27.039-27.507-39.283 28.629-20.047c14.237 8.004 26.988 18.945 37.495 32.291zm-53.119-39.66-21.608 15.13-15.993-22.841c7.072.208 14.247 1.126 21.445 2.771 5.509 1.259 10.905 2.913 16.156 4.94zm-103.083 14.328 27.182 38.821-29.73 20.818-21.323-30.452c6.011-11.233 14.051-21.109 23.871-29.187z"/><path d="m126.252 321.46-10.285 10.285c-2.029 2.029-3.087 4.659-3.198 7.322l-99.591 57.66c-.066.039-.126.084-.191.124l-4.014 2.324c-5.499 3.183-8.762 9.103-8.515 15.451.248 6.348 3.961 11.997 9.69 14.743l22.365 10.718c-.029.408-.067.815-.066 1.228v26.485c.01 6.716 5.482 12.189 12.211 12.2h26.49c.407 0 .808-.038 1.21-.067l10.725 22.371c2.748 5.728 8.4 9.438 14.749 9.683.223.009.446.013.668.013 6.089 0 11.706-3.222 14.772-8.521l13.959-24.098c2.076-3.584.853-8.172-2.73-10.248-3.584-2.076-8.171-.853-10.248 2.73l-13.96 24.101c-.519.896-1.316 1.06-1.881 1.036-.575-.022-1.355-.246-1.805-1.182l-11.272-23.512 52.641-64.697 8.535 8.535-14.661 25.312c-2.076 3.584-.853 8.172 2.731 10.248 1.184.685 2.476 1.011 3.752 1.011 2.588 0 5.106-1.342 6.496-3.742 5.001-8.635 17.215-29.723 28.547-49.289 2.768-.114 5.355-1.232 7.326-3.203l9.75-9.75c8.817-8.817 13.805-21.062 13.686-33.598-.119-12.383-5.014-23.853-13.786-32.295-17.835-17.166-46.59-16.887-64.1.622zm-16.517 36.696 10.811-6.259 14.702 14.702-8.533 8.537zm-94.289 55.887c-.022-.573.14-1.365 1.041-1.887l79.817-46.219 8.534 8.534-64.695 52.639-23.513-11.268c-.938-.449-1.161-1.226-1.184-1.799zm56.969 50.376c-.301.37-.763.582-1.268.582h-23.701v-23.698c-.001-.506.211-.97.581-1.271l67.47-54.896 5.876 5.876c.013.013.024.028.037.041s.027.024.041.037l5.861 5.861zm64.905-78.677 8.533-8.537 14.697 14.697-6.259 10.811zm42.526-9.618-6.42 6.42c-.473-.192-.957-.333-1.446-.424l-41.654-41.653c-.091-.489-.231-.973-.424-1.446l6.955-6.955c11.773-11.772 31.104-11.961 43.093-.422 5.846 5.627 9.109 13.309 9.188 21.632.083 8.532-3.304 16.86-9.292 22.848z"/></g></g></svg>