<svg id="Capa_1" enable-background="new 0 0 510.991 510.991" height="512" viewBox="0 0 510.991 510.991" width="512" xmlns="http://www.w3.org/2000/svg"><g id="Outline_7_"><g><g><path d="m108.051 127.5v120c0 17.673 68.053 32 152 32s152-14.327 152-32v-120z" fill="#524aff"/><path d="m108.051 127.5v120c0 12.859 36.034 23.945 88 29.031v-149.031z" fill="#3b35b8"/><path d="m36.051 111.5 224 104 224-104-224-104z" fill="#9792ff"/><path d="m128.182 68.724-92.131 42.776 224 104 96.999-45.035c-89.074-5.424-176.692-35.252-228.868-101.741z" fill="#746eff"/><g><g><path d="m44.051 223.5 8 80h-32l8-80z" fill="#524aff"/><circle cx="36.051" cy="207.5" fill="#3b35b8" r="16"/></g></g></g><g><g><path d="m404.051 335.5s-96 16-160 16-160-16-160-16c-30.928 0-56 25.072-56 56s25.072 56 56 56c0 0 96-16 160-16s160 16 160 16c30.928 0 56-25.072 56-56s-25.072-56-56-56z" fill="#fde09b"/><circle cx="84.051" cy="391.5" fill="#fcd069" r="56"/><circle cx="84.051" cy="391.5" fill="#fbc137" r="24"/><g><path d="m490.945 391.5h-318.894c0 40-56 56-88 56 96 0 112-16 176-16 58.03 0 106.008 16.263 152 15.608 32.57-.464 78.894-19.185 78.894-55.608z" fill="#feefcd"/></g><g fill="#fde8b4"><path d="m188.385 391.5h-16.335c0 5.767-1.17 11.031-3.258 15.824 7.724-4.255 14.541-9.503 19.593-15.824z"/><path d="m437.495 421.664c-45.992.655-93.97-15.608-152-15.608-50.732 0-71.31 10.052-125.475 14.221-18.242 19.109-53.186 27.223-75.969 27.223 96 0 112-16 176-16 58.03 0 106.008 16.263 152 15.608 27.072-.386 63.642-13.387 75.219-38.68-15.33 8.579-34.137 13.013-49.775 13.236z"/></g></g><g><path d="m298.945 503.5-24-8-24 8v-64h48z" fill="#e04d22"/><circle cx="274.945" cy="391.5" fill="#e7714e" r="56"/><circle cx="274.945" cy="391.5" fill="#edeaee" r="24"/></g></g></g><g><path d="m57.612 308.533c1.422-1.571 2.113-3.67 1.902-5.779l-7.777-77.773c4.793-4.305 7.814-10.546 7.814-17.481 0-10.336-6.71-19.128-16-22.266v-61.983l57 26.464v97.785c0 13.013 16.51 22.814 50.474 29.965 29.203 6.148 67.923 9.535 109.026 9.535s79.823-3.386 109.026-9.535c33.964-7.151 50.474-16.953 50.474-29.965v-97.785l67.658-31.413c2.647-1.229 4.342-3.883 4.342-6.803s-1.693-5.573-4.342-6.803l-54.634-25.366c-3.758-1.745-8.217-.113-9.961 3.645-1.744 3.757-.112 8.216 3.645 9.961l39.982 18.563-206.19 95.731-190.037-88.23h182.036c4.142 0 7.5-3.358 7.5-7.5s-3.358-7.5-7.5-7.5h-182.036l190.036-88.231 132.842 61.677c3.757 1.744 8.216.112 9.961-3.645 1.744-3.757.112-8.216-3.645-9.961l-136-63.143c-2.002-.93-4.313-.929-6.316 0l-224 104c-2.612 1.209-4.342 3.926-4.342 6.803v73.734c-9.29 3.138-16 11.93-16 22.266 0 6.935 3.021 13.175 7.814 17.481l-7.777 77.773c-.435 4.35 3.092 8.246 7.463 8.246h32c2.12 0 4.14-.897 5.562-2.467zm202.439-85.533c1.078 0 2.157-.232 3.158-.697l141.342-65.623v90.748c-.655 2.162-9.542 9.576-41.36 15.933-27.886 5.571-64.515 8.639-103.14 8.639s-75.254-3.068-103.14-8.639c-31.819-6.357-40.705-13.771-41.36-15.933v-90.748l141.342 65.623c1.001.464 2.079.697 3.158.697zm-224-24c4.687 0 8.5 3.813 8.5 8.5s-3.813 8.5-8.5 8.5-8.5-3.813-8.5-8.5 3.813-8.5 8.5-8.5zm-7.713 97 6.503-65.031c.401.02.804.031 1.209.031s.809-.01 1.209-.031l6.504 65.031z"/><path d="m115.551 391.5c0-17.369-14.131-31.5-31.5-31.5s-31.5 14.131-31.5 31.5 14.131 31.5 31.5 31.5 31.5-14.131 31.5-31.5zm-48 0c0-9.098 7.402-16.5 16.5-16.5s16.5 7.402 16.5 16.5-7.402 16.5-16.5 16.5-16.5-7.402-16.5-16.5z"/><path d="m490.94 384h-23.848c-3.724-31.49-30.567-56-63.042-56-.413 0-.825.034-1.232.102-.44.073-43.704 7.241-90.785 11.903-10.442-7.543-23.25-12.005-37.088-12.005-16.049 0-30.716 5.997-41.907 15.851-21.321-.544-47.452-2.584-77.76-6.078-4.125-.475-7.835 2.477-8.31 6.592-.474 4.115 2.477 7.835 6.592 8.31 25.358 2.923 47.877 4.843 67.209 5.739-4.672 7.621-7.768 16.301-8.866 25.586h-39.853c-4.142 0-7.5 3.358-7.5 7.5 0 16.591-12.408 28.703-28.715 36.681 7.366-10.368 11.715-23.022 11.715-36.681 0-35.014-28.486-63.5-63.5-63.5s-63.5 28.486-63.5 63.5 28.486 63.5 63.5 63.5c53.462 0 82.648-4.946 108.398-9.311 13.572-2.3 26.44-4.481 41.573-5.688 2.925 2.472 6.078 4.679 9.418 6.597v56.902c0 5.031 5.091 8.708 9.872 7.115l21.628-7.209 21.628 7.209c4.783 1.593 9.872-2.086 9.872-7.115v-56.896c1.981-1.137 3.896-2.374 5.736-3.71 10.235 1.372 20.262 2.958 29.975 4.507 23.284 3.713 45.326 7.228 67.202 7.228.935 0 1.872-.006 2.806-.02 34.796-.501 86.281-20.906 86.281-63.109.001-4.142-3.356-7.5-7.499-7.5zm-167.497 7.435c0 .022-.003.043-.003.064s.003.043.003.064c-.035 26.715-21.776 48.437-48.498 48.437-26.743 0-48.5-21.757-48.5-48.5s21.757-48.5 48.5-48.5c26.722 0 48.463 21.722 48.498 48.435zm-287.892.065c0-26.743 21.757-48.5 48.5-48.5s48.5 21.757 48.5 48.5-21.757 48.5-48.5 48.5-48.5-21.757-48.5-48.5zm154.391 39.4c-11.431 1.937-23.563 3.991-38.284 5.656 1.4-.881 2.759-1.781 4.054-2.709 13.193-9.453 21.124-21.388 23.255-34.848h32.936c1.173 9.919 4.638 19.141 9.855 27.127-11.144 1.274-21.276 2.988-31.816 4.774zm101.498 62.194-14.128-4.709c-1.541-.513-3.203-.513-4.744 0l-14.127 4.709v-40.283c5.266 1.419 10.796 2.189 16.504 2.189 5.705 0 11.232-.768 16.495-2.186zm120.505-53.483c-21.484.301-43.811-3.256-67.432-7.023-6.158-.982-12.449-1.977-18.847-2.932 6.594-8.744 10.97-19.242 12.32-30.656h41.977c4.143 0 7.5-3.358 7.5-7.5s-3.357-7.5-7.5-7.5h-41.977c-1.335-11.284-5.625-21.674-12.095-30.358 39.464-4.303 73.686-9.811 78.749-10.639 23.928.288 43.739 17.992 47.326 40.997h-35.612c-4.143 0-7.5 3.358-7.5 7.5s3.357 7.5 7.5 7.5h66.226c-6.082 25.971-43.198 40.215-70.635 40.611z"/><path d="m274.945 423c17.369 0 31.5-14.131 31.5-31.5s-14.131-31.5-31.5-31.5-31.5 14.131-31.5 31.5 14.131 31.5 31.5 31.5zm0-48c9.098 0 16.5 7.402 16.5 16.5s-7.402 16.5-16.5 16.5-16.5-7.402-16.5-16.5 7.403-16.5 16.5-16.5z"/></g></g></svg>