<svg id="Capa_1" enable-background="new 0 0 512 512" height="512" viewBox="0 0 512 512" width="512" xmlns="http://www.w3.org/2000/svg"><g><g><path clip-rule="evenodd" d="m435.573 119.485c-16.965 7.688-28.814 24.797-28.814 44.566 0 3.959 3.237 7.225 7.225 7.225h83.291c3.988 0 7.225-3.266 7.225-7.225 0-19.768-11.849-36.878-28.814-44.566-10.895-6.994-27.715-7.89-40.113 0z" fill="#fd4755" fill-rule="evenodd"/></g><g><path clip-rule="evenodd" d="m435.573 275.003c-16.965 7.688-28.814 24.797-28.814 44.566 0 3.959 3.237 7.225 7.225 7.225h83.291c3.988 0 7.225-3.266 7.225-7.225 0-19.768-11.849-36.878-28.814-44.566-10.895-8.324-27.715-9.307-40.113 0z" fill="#fdb440" fill-rule="evenodd"/></g><g><path clip-rule="evenodd" d="m455.629 218.096c-17.658 0-31.993 14.306-31.993 31.994 0 10.058 4.653 19.046 11.936 24.913 5.491 4.422 12.456 7.081 20.057 7.081s14.566-2.659 20.057-7.081c7.283-5.867 11.936-14.855 11.936-24.913 0-17.688-14.334-31.994-31.993-31.994z" fill="#ffe5c1" fill-rule="evenodd"/></g><g><path clip-rule="evenodd" d="m435.573 429.277c-16.965 7.688-28.814 24.826-28.814 44.566 0 3.988 3.237 7.254 7.225 7.254h83.291c3.988 0 7.225-3.266 7.225-7.254 0-19.74-11.849-36.878-28.814-44.566-9.941-5.029-29.767-5.665-40.113 0z" fill="#80d261" fill-rule="evenodd"/></g><g><path clip-rule="evenodd" d="m455.629 62.579c-17.658 0-31.993 14.335-31.993 31.994 0 10.058 4.653 19.046 11.936 24.913 5.491 4.422 12.456 7.081 20.057 7.081s14.566-2.659 20.057-7.081c7.283-5.867 11.936-14.855 11.936-24.913 0-17.659-14.334-31.994-31.993-31.994z" fill="#ffe5c1" fill-rule="evenodd"/></g><g><path clip-rule="evenodd" d="m455.629 372.371c-17.658 0-31.993 14.335-31.993 31.994 0 10.086 4.653 19.075 11.936 24.913 5.491 4.422 12.456 7.081 20.057 7.081s14.566-2.659 20.057-7.081c7.283-5.838 11.936-14.826 11.936-24.913 0-17.659-14.334-31.994-31.993-31.994z" fill="#ffe5c1" fill-rule="evenodd"/></g><g><path clip-rule="evenodd" d="m455.629 372.371c-3.295 0-6.474.52-9.45 1.416 13.063 4.046 22.542 16.214 22.542 30.577 0 10.086-4.653 19.075-11.936 24.913-3.092 2.514-6.705 4.451-10.606 5.665 2.977.925 6.156 1.416 9.45 1.416 7.601 0 14.566-2.659 20.057-7.081 7.283-5.838 11.936-14.826 11.936-24.913 0-17.658-14.334-31.993-31.993-31.993z" fill="#fed1a3" fill-rule="evenodd"/></g><g><path clip-rule="evenodd" d="m487.622 94.572c0-17.659-14.335-31.994-31.993-31.994-3.295 0-6.474.491-9.45 1.416 13.063 4.017 22.542 16.185 22.542 30.577 0 7.485-2.572 14.364-6.878 19.826-1.474 1.879-3.179 3.584-5.058 5.087-3.092 2.514-6.705 4.451-10.606 5.665 2.977.896 6.156 1.416 9.45 1.416 7.601 0 14.566-2.659 20.057-7.081 7.283-5.866 11.936-14.854 11.936-24.912z" fill="#fed1a3" fill-rule="evenodd"/></g><g><path clip-rule="evenodd" d="m468.721 250.09c0 7.11-2.312 13.67-6.242 18.988-1.647 2.196-3.555 4.191-5.693 5.925-3.092 2.514-6.705 4.451-10.606 5.636 2.977.925 6.156 1.445 9.45 1.445 7.601 0 14.566-2.659 20.057-7.081 7.283-5.867 11.936-14.855 11.936-24.913 0-17.688-14.335-31.994-31.993-31.994-3.295 0-6.474.491-9.45 1.416 13.062 4.018 22.541 16.185 22.541 30.578z" fill="#fed1a3" fill-rule="evenodd"/></g><g><path clip-rule="evenodd" d="m504.5 473.843c0-19.74-11.849-36.878-28.814-44.566-2.659 2.139-5.636 3.873-8.872 5.087 12.196 8.902 20.144 23.294 20.144 39.479 0 3.988-3.266 7.254-7.225 7.254h17.543c3.987 0 7.224-3.266 7.224-7.254z" fill="#4fc122" fill-rule="evenodd"/></g><g><path clip-rule="evenodd" d="m504.5 319.568c0-19.768-11.849-36.878-28.814-44.566-2.659 2.139-5.636 3.844-8.872 5.058 12.196 8.902 20.144 23.323 20.144 39.508 0 3.959-3.266 7.225-7.225 7.225h17.543c3.987 0 7.224-3.265 7.224-7.225z" fill="#fe9900" fill-rule="evenodd"/></g><g><path clip-rule="evenodd" d="m475.686 119.485c-2.659 2.139-5.636 3.844-8.872 5.058 12.196 8.93 20.144 23.323 20.144 39.508 0 3.959-3.266 7.225-7.225 7.225h17.543c3.988 0 7.225-3.266 7.225-7.225-.001-19.768-11.85-36.878-28.815-44.566z" fill="#e41e2b" fill-rule="evenodd"/></g><g><path clip-rule="evenodd" d="m139.748 134.312c-47.339.78-94.707 36.444-94.707 106.79l102.654 19.913 86.788-19.913c.001-70.346-47.367-106.01-94.735-106.79z" fill="#6d80aa" fill-rule="evenodd"/></g><g><path clip-rule="evenodd" d="m7.5 449.016v25.028c0 2.514 1.243 4.769 3.121 6.156 1.272.925 2.832 1.474 4.508 1.474h249.266c1.676 0 3.237-.549 4.48-1.474 1.907-1.387 3.15-3.642 3.15-6.156v-25.028c0-44.016-29.941-56.357-60.575-64.97h-143.375c-30.634 8.613-60.575 20.954-60.575 64.97z" fill="#22a6fe" fill-rule="evenodd"/></g><g><path clip-rule="evenodd" d="m68.075 384.047 58.841 34.508c9.971 6.445 15.693 6.445 25.692 0l58.841-34.508c-5.462-1.532-10.953-2.948-16.3-4.422-12.456-3.381-15.722-19.422-18.294-24.624h-74.215c-2.543 5.202-5.838 21.242-18.265 24.624-5.347 1.474-10.838 2.89-16.3 4.422z" fill="#fed1a3" fill-rule="evenodd"/></g><g><path clip-rule="evenodd" d="m45.042 270.06c0 29.999 24.912 66.762 57.598 84.941 4.335 2.399 8.815 4.48 13.41 6.185 17.138 6.358 30.259 6.358 47.426 0 4.566-1.705 9.046-3.786 13.381-6.185 32.715-18.179 57.627-54.941 57.627-84.941v-28.959c-38.351-2.688-32.629-31.936-59.101-25.144-20.461 5.289-28.033 7.919-35.634 7.919s-15.173-2.63-35.634-7.919c-26.444-6.792-20.722 22.456-59.072 25.144v28.959z" fill="#ffe5c1" fill-rule="evenodd"/></g><g><path clip-rule="evenodd" d="m151.655 390c3.641-1.069 7.716-2.717 10.867-3.728 2.63-.838 4.277-1.532 7.89 1.329l14.739 11.849 26.299-15.404c-5.462-1.532-10.953-2.948-16.3-4.422-12.456-3.381-15.722-19.422-18.294-24.624-4.335 2.399-8.815 4.48-13.381 6.185-17.167 6.358-30.288 6.358-47.426 0-4.595-1.705-9.075-3.786-13.41-6.185-1.879 3.844-4.162 13.641-10.289 19.826 18.209 12.515 41.502 20.377 59.305 15.174z" fill="#ffbc85" fill-rule="evenodd"/></g><g><path clip-rule="evenodd" d="m131.512 134.803c31.762 10.78 58.639 38.699 64.303 83.669.087.723.173 1.445.26 2.168 7.948 7.196 14.913 18.815 38.409 20.462 0-70.345-47.368-106.01-94.735-106.79-2.746.057-5.492.231-8.237.491z" fill="#49679b" fill-rule="evenodd"/></g><g><path clip-rule="evenodd" d="m196.913 265.494c0 40.288-42.108 86.443-83.378 94.709.838.347 1.676.665 2.514.983 17.138 6.358 30.259 6.358 47.426 0 4.566-1.705 9.046-3.786 13.381-6.185 32.715-18.179 57.627-54.941 57.627-84.941v-28.959c-23.496-1.647-30.461-13.266-38.409-20.462 1.562 14.133.839 30.665.839 44.855z" fill="#fed1a3" fill-rule="evenodd"/></g><g><path clip-rule="evenodd" d="m185.151 399.451c30.634 8.613 60.575 20.953 60.575 64.999v15.751 1.474h18.67c1.676 0 3.237-.549 4.48-1.474 1.907-1.387 3.15-3.642 3.15-6.156v-25.028c0-44.016-29.941-56.357-60.575-64.97z" fill="#0182fc" fill-rule="evenodd"/></g><g><path clip-rule="evenodd" d="m237.807 81.307 17.485 25.057 29.247 8.902c2.919.896 3.381 2.283 1.561 4.711l-18.467 24.393.607 30.577c.058 3.035-1.156 3.902-4.017 2.919l-28.9-10-28.9 10c-2.861.983-4.075.116-4.017-2.919l.578-30.577-18.438-24.393c-1.821-2.428-1.358-3.815 1.532-4.711l29.276-8.902 17.485-25.057c1.731-2.515 3.205-2.515 4.968 0z" fill="#fdb440" fill-rule="evenodd"/></g><g><path clip-rule="evenodd" d="m284.539 115.266-29.247-8.902-14.739-21.127c2.89 9.769 4.508 20.549 4.508 31.936 0 19.855-4.913 38.005-13.005 51.82l3.266-1.127 28.9 10c2.861.983 4.075.116 4.017-2.919l-.607-30.577 18.467-24.393c1.822-2.428 1.359-3.815-1.56-4.711z" fill="#fe9900" fill-rule="evenodd"/></g><g><path d="m487.633 427.464c4.705-6.501 7.49-14.479 7.49-23.1 0-21.777-17.716-39.494-39.492-39.494s-39.493 17.717-39.493 39.494c0 8.62 2.784 16.598 7.49 23.099-15.058 10.431-24.368 27.725-24.368 46.379 0 8.136 6.605 14.754 14.726 14.754h83.291c8.119 0 14.725-6.618 14.725-14.754-.002-18.653-9.311-35.947-24.369-46.378zm-32.003-47.594c13.505 0 24.492 10.988 24.492 24.494s-10.987 24.493-24.492 24.493c-13.506 0-24.493-10.987-24.493-24.493s10.987-24.494 24.493-24.494zm-41.37 93.727c.088-14.723 8.098-28.248 20.74-35.572 6.008 3.696 13.073 5.833 20.63 5.833 7.556 0 14.622-2.137 20.63-5.833 12.641 7.325 20.651 20.849 20.74 35.572z"/><path d="m487.633 273.189c4.705-6.501 7.49-14.479 7.49-23.1 0-21.777-17.716-39.494-39.492-39.494s-39.493 17.717-39.493 39.494c0 8.62 2.784 16.598 7.49 23.099-15.058 10.431-24.368 27.725-24.368 46.379 0 8.119 6.605 14.725 14.726 14.725h83.291c8.119 0 14.725-6.605 14.725-14.725-.002-18.653-9.311-35.946-24.369-46.378zm-32.003-47.593c13.505 0 24.492 10.988 24.492 24.494s-10.987 24.493-24.492 24.493c-13.506 0-24.493-10.987-24.493-24.493s10.987-24.494 24.493-24.494zm-41.37 93.697c.099-14.711 8.107-28.223 20.74-35.543 6.008 3.696 13.073 5.833 20.63 5.833 7.556 0 14.622-2.137 20.63-5.833 12.633 7.32 20.64 20.831 20.74 35.543z"/><path d="m413.984 178.776h83.291c8.119 0 14.725-6.605 14.725-14.726 0-18.654-9.309-35.948-24.367-46.379 4.705-6.501 7.489-14.479 7.489-23.1 0-21.776-17.716-39.493-39.492-39.493s-39.493 17.717-39.493 39.493c0 8.621 2.784 16.599 7.489 23.1-15.058 10.431-24.367 27.725-24.367 46.379 0 8.121 6.605 14.726 14.725 14.726zm41.646-108.697c13.505 0 24.492 10.987 24.492 24.493s-10.987 24.494-24.492 24.494c-13.506 0-24.493-10.988-24.493-24.494s10.987-24.493 24.493-24.493zm-20.631 58.154c6.008 3.696 13.074 5.833 20.631 5.833s14.622-2.137 20.63-5.833c12.633 7.32 20.64 20.832 20.739 35.543h-82.739c.099-14.711 8.106-28.223 20.739-35.543z"/><path d="m367.587 133.307c-.026-.023-.054-.048-.081-.071l-21.646-18.729c-3.131-2.708-7.867-2.367-10.579.765-2.71 3.132-2.368 7.868.765 10.579l9.361 8.1h-30.32c-4.143 0-7.5 3.357-7.5 7.5s3.357 7.5 7.5 7.5h30.306l-9.351 8.104c-3.131 2.713-3.47 7.449-.757 10.579 1.483 1.712 3.571 2.589 5.671 2.589 1.741 0 3.49-.603 4.908-1.832l21.666-18.774c2.375-2.072 3.745-5.03 3.761-8.115.016-3.099-1.335-6.085-3.704-8.195z"/><path d="m367.51 270.462-21.646-18.757c-3.128-2.712-7.866-2.375-10.579.757-2.713 3.13-2.374 7.866.757 10.579l9.352 8.104h-30.307c-4.143 0-7.5 3.357-7.5 7.5s3.357 7.5 7.5 7.5h30.339l-9.384 8.132c-3.131 2.713-3.47 7.449-.757 10.579 1.483 1.712 3.571 2.589 5.671 2.589 1.741 0 3.49-.603 4.908-1.832l21.666-18.774c2.391-2.087 3.762-5.068 3.761-8.182-.001-3.113-1.372-6.094-3.781-8.195z"/><path d="m367.51 417.829-21.646-18.757c-3.128-2.712-7.866-2.375-10.579.757-2.713 3.13-2.374 7.866.757 10.579l9.35 8.103h-30.305c-4.143 0-7.5 3.357-7.5 7.5s3.357 7.5 7.5 7.5h30.321l-9.362 8.1c-3.133 2.71-3.475 7.446-.765 10.579 1.483 1.715 3.573 2.593 5.675 2.593 1.739 0 3.486-.602 4.904-1.828l21.646-18.728c.027-.023.054-.047.081-.071 2.37-2.11 3.72-5.098 3.704-8.195-.017-3.087-1.388-6.044-3.781-8.132z"/><path d="m151.612 312.906c-6.446 6.447-16.934 6.447-23.38 0-2.929-2.928-7.678-2.928-10.606 0-2.929 2.93-2.929 7.678 0 10.607 6.147 6.146 14.222 9.221 22.297 9.221s16.149-3.074 22.296-9.221c2.929-2.93 2.929-7.678 0-10.607-2.929-2.927-7.678-2.927-10.607 0z"/><path d="m123.934 274.979c2.875-2.981 2.79-7.729-.192-10.605-8.565-8.262-22.474-8.256-31.004.014-2.974 2.883-3.048 7.631-.165 10.605 2.883 2.972 7.631 3.048 10.605.164 2.74-2.655 7.388-2.65 10.15.014 1.456 1.403 3.332 2.102 5.206 2.102 1.965-.002 3.927-.769 5.4-2.294z"/><path d="m156.102 264.373c-2.981 2.876-3.067 7.624-.192 10.605 2.875 2.979 7.624 3.066 10.605.191 2.811-2.712 7.383-2.71 10.193 0 1.456 1.403 3.332 2.102 5.206 2.102 1.965 0 3.927-.768 5.399-2.293 2.876-2.981 2.79-7.729-.192-10.605-8.552-8.248-22.468-8.247-31.019 0z"/><path d="m286.723 108.091-26.765-8.146-16-22.93c-.003-.004-.006-.009-.009-.013-2.94-4.195-6.313-5.081-8.637-5.081-.012 0-.024 0-.036 0-2.323.009-5.703.906-8.59 5.094l-16 22.929-26.833 8.159c-4.867 1.51-6.736 4.442-7.447 6.638-.71 2.194-.917 5.664 2.154 9.759l12.99 17.184c-15.344-9.365-33.128-14.564-51.679-14.871-.083-.002-.164-.002-.246 0-13.661.222-26.944 3.094-39.482 8.538-3.799 1.65-5.542 6.067-3.892 9.867 1.65 3.799 6.067 5.54 9.867 3.893 10.681-4.639 21.994-7.094 33.628-7.298 20.669.37 40.199 7.805 55.386 20.995l-.227 11.995c-.098 5.104 2.118 7.804 3.993 9.17s5.126 2.646 9.975.98l3.688-1.276c8.299 13.877 13.055 30.222 14.167 48.767-10.826-2.45-16.118-7.849-21.269-13.102-6.919-7.057-14.763-15.055-31.954-10.647-4.723 1.221-8.762 2.301-12.275 3.24-11.061 2.956-16.612 4.44-21.482 4.44s-10.421-1.484-21.481-4.44c-3.514-.939-7.553-2.019-12.288-3.243-17.165-4.41-25 3.59-31.914 10.646-5.148 5.254-10.439 10.653-21.263 13.104 1.632-26.711 10.905-49.206 27.063-65.443 2.921-2.936 2.91-7.685-.026-10.606-2.935-2.921-7.684-2.909-10.607.026-20.732 20.834-31.691 50.116-31.691 84.682v28.959c0 31.571 24.051 67.962 55.812 88.093-2.102 5.553-5.24 12.681-10.95 14.235-2.042.557-4.104 1.106-6.177 1.66-33.96 9.065-76.226 20.347-76.226 74.969v25.028c0 8.343 6.787 15.13 15.13 15.13h110.284c4.142 0 7.5-3.357 7.5-7.5s-3.358-7.5-7.5-7.5h-110.284c-.048 0-.13-.081-.13-.13v-25.028c0-37.422 23.84-48.713 52.032-56.887l55.954 32.814c6.177 3.972 11.469 5.957 16.765 5.957 5.295 0 10.594-1.985 16.784-5.954l55.959-32.817c28.192 8.174 52.032 19.464 52.032 56.887v25.028c0 .049-.081.13-.13.13h-103.695c-4.142 0-7.5 3.357-7.5 7.5s3.358 7.5 7.5 7.5h103.694c8.343 0 15.13-6.787 15.13-15.13v-25.028c0-54.622-42.265-65.903-76.226-74.968-2.074-.554-4.136-1.104-6.184-1.662-5.718-1.552-8.857-8.689-10.959-14.229 31.769-20.136 55.827-56.531 55.827-88.098v-28.959c0-23.699-5.043-44.641-14.985-62.419l8.322-2.879 26.462 9.155c1.632.561 3.084.786 4.363.786 2.509 0 4.354-.866 5.596-1.771 1.876-1.365 4.092-4.064 3.995-9.175l-.556-27.977 16.916-22.344c3.058-4.075 2.848-7.548 2.133-9.743-.712-2.198-2.593-5.134-7.506-6.643zm-94.44 278.502-43.468 25.492c-.091.054-.181.108-.27.166-7.563 4.873-10.025 4.875-17.557.005-.091-.059-.184-.116-.278-.171l-43.469-25.493c11.087-3.47 16.382-13.687 19.394-21.207 2.247 1.027 4.514 1.982 6.805 2.831 9.464 3.512 17.884 5.267 26.31 5.267 8.424 0 16.854-1.756 26.333-5.266 2.287-.848 4.55-1.802 6.793-2.827 3.01 7.505 8.304 17.735 19.407 21.203zm34.701-116.532c0 31.735-30.896 71.031-66.113 84.092-15.399 5.705-26.841 5.705-42.215.001-35.22-13.052-66.114-52.348-66.114-84.093v-22.296c17.519-2.921 25.921-11.48 32.237-17.927 6.147-6.273 8.691-8.873 17.458-6.618 4.677 1.209 8.677 2.278 12.157 3.208 12.327 3.295 18.515 4.949 25.354 4.949 6.84 0 13.028-1.654 25.356-4.949 3.479-.931 7.479-2 12.142-3.205 8.8-2.258 11.347.343 17.503 6.622 6.318 6.444 14.721 15 32.235 17.92zm34.669-130.219c-1.018 1.344-1.553 2.991-1.519 4.676l.479 24.163-22.839-7.902c-1.589-.549-3.315-.549-4.904 0l-22.846 7.904.457-24.172c.032-1.681-.502-3.323-1.516-4.664l-14.568-19.272 23.136-7.034c1.609-.489 3.007-1.505 3.969-2.884l13.819-19.805 13.82 19.805c.961 1.378 2.358 2.394 3.967 2.883l23.129 7.039z"/><path d="m236.189 54.53c4.142 0 7.5-3.357 7.5-7.5v-16.705c0-4.143-3.358-7.5-7.5-7.5s-7.5 3.357-7.5 7.5v16.705c0 4.143 3.358 7.5 7.5 7.5z"/><path d="m171.375 64.963 14.884 8.323c1.159.647 2.415.955 3.654.955 2.628 0 5.179-1.384 6.553-3.841 2.022-3.615.73-8.185-2.885-10.206l-14.884-8.323c-3.616-2.021-8.185-.729-10.207 2.886s-.73 8.184 2.885 10.206z"/><path d="m293.682 51.871-14.884 8.323c-3.615 2.021-4.907 6.591-2.886 10.206 1.374 2.457 3.925 3.841 6.553 3.841 1.239 0 2.495-.308 3.653-.955l14.884-8.323c3.615-2.021 4.907-6.591 2.886-10.206-2.023-3.615-6.592-4.906-10.206-2.886z"/></g></g><g><path d="" style="fill:none;stroke:#000;stroke-width:15;stroke-linecap:round;stroke-linejoin:round;stroke-miterlimit:10"/></g></svg>