<svg id="Capa_1" enable-background="new 0 0 512 512" height="512" viewBox="0 0 512 512" width="512" xmlns="http://www.w3.org/2000/svg"><g><g><path d="m7.5 7.5h497v48.488h-497z" fill="#ecbe6b"/></g><g><path d="m470.154 7.5h34.346v48.488h-34.346z" fill="#e7a52e"/></g><g><path d="m22.652 55.988h466.695v323.252h-466.695z" fill="#d8e2f1"/></g><g><path d="m464.094 55.988h25.254v323.252h-25.254z" fill="#b9cbea"/></g><g><circle cx="256" cy="484.297" fill="#5766cb" r="20.203"/></g><g><g><path d="m125.689 154.984h101.016v48.488h-101.016z" fill="#80e29d" transform="matrix(0 -1 1 0 -3.031 355.425)"/></g><g><path d="m56.998 134.78h141.423v48.488h-141.423z" fill="#dd5790" transform="matrix(0 -1 1 0 -31.315 286.734)"/></g><g><path d="m48.917 175.187h60.61v48.488h-60.61z" fill="#ffe07d" transform="matrix(0 -1 1 0 -120.209 278.652)"/></g></g><g><path d="m256 88.313h121.22v36.366h-121.22z" fill="#5766cb"/></g><g><path d="m489.348 123.224c-4.143 0-7.5 3.357-7.5 7.5v241.016h-451.696v-45.12c0-4.143-3.357-7.5-7.5-7.5s-7.5 3.357-7.5 7.5v52.62c0 4.143 3.357 7.5 7.5 7.5h225.848v70.894c-11.642 3.28-20.203 13.987-20.203 26.663 0 15.275 12.428 27.703 27.703 27.703s27.703-12.428 27.703-27.703c0-12.676-8.561-23.384-20.203-26.663v-70.894h225.848c4.143 0 7.5-3.357 7.5-7.5v-248.516c0-4.143-3.358-7.5-7.5-7.5zm-220.645 361.073c0 7.005-5.698 12.703-12.703 12.703s-12.703-5.698-12.703-12.703 5.698-12.703 12.703-12.703 12.703 5.698 12.703 12.703z"/><path d="m504.5 0h-497c-4.143 0-7.5 3.357-7.5 7.5v48.488c0 4.143 3.357 7.5 7.5 7.5h7.652v228.029c0 4.143 3.357 7.5 7.5 7.5s7.5-3.357 7.5-7.5v-228.029h451.695v32.119c0 4.143 3.357 7.5 7.5 7.5s7.5-3.357 7.5-7.5v-32.119h7.652c4.143 0 7.5-3.357 7.5-7.5v-48.488c.001-4.143-3.356-7.5-7.499-7.5zm-7.5 48.488h-482v-33.488h482z"/><path d="m151.953 80.813h-48.487c-4.143 0-7.5 3.357-7.5 7.5v73.313h-40.988c-4.143 0-7.5 3.357-7.5 7.5v60.609c0 4.143 3.357 7.5 7.5 7.5h145.464c4.143 0 7.5-3.357 7.5-7.5v-101.015c0-4.143-3.357-7.5-7.5-7.5h-40.988v-32.907c-.001-4.142-3.358-7.5-7.501-7.5zm-89.475 95.813h33.488v45.609h-33.488zm48.488-7.5v-73.313h33.487v32.906 93.516h-33.487zm81.975-32.906v86.016h-33.488v-86.016z"/><path d="m256 132.179h121.22c4.143 0 7.5-3.357 7.5-7.5v-36.366c0-4.143-3.357-7.5-7.5-7.5h-121.22c-4.143 0-7.5 3.357-7.5 7.5v36.365c0 4.143 3.357 7.501 7.5 7.501zm7.5-36.366h106.22v21.365h-106.22z"/><path d="m256 166.524h201.022c4.143 0 7.5-3.357 7.5-7.5s-3.357-7.5-7.5-7.5h-201.022c-4.143 0-7.5 3.357-7.5 7.5s3.357 7.5 7.5 7.5z"/><path d="m256 200.87h130.311c4.143 0 7.5-3.357 7.5-7.5s-3.357-7.5-7.5-7.5h-130.311c-4.143 0-7.5 3.357-7.5 7.5s3.357 7.5 7.5 7.5z"/><path d="m256 235.216h160.616c4.143 0 7.5-3.357 7.5-7.5s-3.357-7.5-7.5-7.5h-160.616c-4.143 0-7.5 3.357-7.5 7.5s3.357 7.5 7.5 7.5z"/><path d="m190.34 252.541h-78.793c-4.143 0-7.5 3.357-7.5 7.5s3.357 7.5 7.5 7.5h78.793c4.143 0 7.5-3.357 7.5-7.5s-3.358-7.5-7.5-7.5z"/><path d="m54.978 267.541h20.203c4.143 0 7.5-3.357 7.5-7.5s-3.357-7.5-7.5-7.5h-20.203c-4.143 0-7.5 3.357-7.5 7.5s3.357 7.5 7.5 7.5z"/><path d="m190.34 288.906h-78.793c-4.143 0-7.5 3.357-7.5 7.5s3.357 7.5 7.5 7.5h78.793c4.143 0 7.5-3.357 7.5-7.5s-3.358-7.5-7.5-7.5z"/><path d="m54.978 303.906h20.203c4.143 0 7.5-3.357 7.5-7.5s-3.357-7.5-7.5-7.5h-20.203c-4.143 0-7.5 3.357-7.5 7.5s3.357 7.5 7.5 7.5z"/><path d="m190.34 325.272h-78.793c-4.143 0-7.5 3.357-7.5 7.5s3.357 7.5 7.5 7.5h78.793c4.143 0 7.5-3.357 7.5-7.5s-3.358-7.5-7.5-7.5z"/><path d="m54.978 340.272h20.203c4.143 0 7.5-3.357 7.5-7.5s-3.357-7.5-7.5-7.5h-20.203c-4.143 0-7.5 3.357-7.5 7.5s3.357 7.5 7.5 7.5z"/><path d="m391.361 252.541h-78.792c-4.143 0-7.5 3.357-7.5 7.5s3.357 7.5 7.5 7.5h78.792c4.143 0 7.5-3.357 7.5-7.5s-3.357-7.5-7.5-7.5z"/><path d="m256 267.541h20.203c4.143 0 7.5-3.357 7.5-7.5s-3.357-7.5-7.5-7.5h-20.203c-4.143 0-7.5 3.357-7.5 7.5s3.357 7.5 7.5 7.5z"/><path d="m391.361 288.906h-78.792c-4.143 0-7.5 3.357-7.5 7.5s3.357 7.5 7.5 7.5h78.792c4.143 0 7.5-3.357 7.5-7.5s-3.357-7.5-7.5-7.5z"/><path d="m256 303.906h20.203c4.143 0 7.5-3.357 7.5-7.5s-3.357-7.5-7.5-7.5h-20.203c-4.143 0-7.5 3.357-7.5 7.5s3.357 7.5 7.5 7.5z"/><path d="m391.361 325.272h-78.792c-4.143 0-7.5 3.357-7.5 7.5s3.357 7.5 7.5 7.5h78.792c4.143 0 7.5-3.357 7.5-7.5s-3.357-7.5-7.5-7.5z"/><path d="m256 340.272h20.203c4.143 0 7.5-3.357 7.5-7.5s-3.357-7.5-7.5-7.5h-20.203c-4.143 0-7.5 3.357-7.5 7.5s3.357 7.5 7.5 7.5z"/></g></g></svg>