<svg viewBox="0 -40 512 512" xmlns="http://www.w3.org/2000/svg"><path d="m10 10h492v412h-492zm0 0" fill="#e1e5ea"/><path d="m170 10 28.75 57.496094c6.894531 13.792968 20.988281 22.503906 36.410156 22.503906h266.839844v-80zm0 0" fill="#5aa096"/><path d="m203 203c0-1.082031-.03125-2.160156-.089844-3.230469l31.25-18.628906-23.609375-44.074219-30.902343 18.445313c-3.582032-2.773438-7.488282-5.140625-11.648438-7.050781v-39.460938h-50v39.460938c-3.644531 1.671874-7.09375 3.695312-10.300781 6.03125l-33.242188-18.601563-24.835937 43.394531 33.597656 18.808594c-.132812 1.617188-.21875 3.25-.21875 4.90625 0 1.410156.066406 2.804688.160156 4.1875l-33.320312 17.667969 23.609375 44.078125 33.65625-17.847656c3.375 2.519531 7.027343 4.679687 10.894531 6.453124v40.460938h50v-40.460938c3.351562-1.535156 6.535156-3.375 9.519531-5.476562l32.023438 20.046875 24.835937-43.394531-31.667968-19.847656c.1875-1.929688.289062-3.886719.289062-5.867188zm-60.378906 19.5c-11.046875 0-20-8.953125-20-20s8.953125-20 20-20 20 8.953125 20 20-8.953125 20-20 20zm0 0" fill="#fa9600"/><path d="m343 308c0 16.570312-13.429688 30-30 30s-30-13.429688-30-30 13.429688-30 30-30 30 13.429688 30 30zm0 0" fill="#5aa096"/><path d="m323 198c0 11.046875-8.953125 20-20 20s-20-8.953125-20-20 8.953125-20 20-20 20 8.953125 20 20zm0 0" fill="#8898a8"/><path d="m462 218c0 22.089844-17.910156 40-40 40s-40-17.910156-40-40 17.910156-40 40-40 40 17.910156 40 40zm0 0" fill="#c8e7f9"/><path d="m502 0h-492c-5.523438 0-10 4.476562-10 10v412c0 5.523438 4.476562 10 10 10h492c5.523438 0 10-4.476562 10-10v-412c0-5.523438-4.476562-10-10-10zm-10 20v60h-256.84375c-11.703125 0-22.226562-6.503906-27.464844-16.976562l-21.511718-43.023438zm-472 392v-392h143.820312l10 20h-83.820312c-5.511719 0-10 4.488281-10 10s4.488281 10 10 10h93.820312l5.984376 11.96875c8.644531 17.289062 26.023437 28.03125 45.351562 28.03125h256.84375v312zm0 0"/><path d="m382 60c5.519531 0 10-4.480469 10-10s-4.480469-10-10-10-10 4.480469-10 10 4.480469 10 10 10zm0 0"/><path d="m422 60c5.519531 0 10-4.480469 10-10s-4.480469-10-10-10-10 4.480469-10 10 4.480469 10 10 10zm0 0"/><path d="m462 60c5.519531 0 10-4.480469 10-10s-4.480469-10-10-10-10 4.480469-10 10 4.480469 10 10 10zm0 0"/><path d="m50 60c5.511719 0 10-4.488281 10-10s-4.488281-10-10-10c-5.519531 0-10 4.488281-10 10s4.480469 10 10 10zm0 0"/><path d="m142.621094 172.5c-16.542969 0-30 13.457031-30 30s13.457031 30 30 30c16.542968 0 30-13.457031 30-30s-13.457032-30-30-30zm0 40c-5.515625 0-10-4.484375-10-10s4.484375-10 10-10 10 4.484375 10 10-4.484375 10-10 10zm0 0"/><path d="m106 372h-60c-5.511719 0-10 4.488281-10 10s4.488281 10 10 10h60c5.511719 0 10-4.488281 10-10s-4.488281-10-10-10zm0 0"/><path d="m146 372c-5.511719 0-10 4.488281-10 10s4.488281 10 10 10 10-4.488281 10-10-4.488281-10-10-10zm0 0"/><path d="m226 372h-40c-5.519531 0-10 4.488281-10 10s4.480469 10 10 10h40c5.511719 0 10-4.488281 10-10s-4.488281-10-10-10zm0 0"/><path d="m206 352c5.523438 0 10-4.476562 10-10s-4.476562-10-10-10h-156c-5.523438 0-10 4.476562-10 10s4.476562 10 10 10zm0 0"/><path d="m462 372h-20c-5.523438 0-10 4.476562-10 10s4.476562 10 10 10h20c5.523438 0 10-4.476562 10-10s-4.476562-10-10-10zm0 0"/><path d="m402 372h-20c-5.523438 0-10 4.476562-10 10s4.476562 10 10 10h20c5.523438 0 10-4.476562 10-10s-4.476562-10-10-10zm0 0"/><path d="m462 332h-65.332031c-5.523438 0-10 4.476562-10 10s4.476562 10 10 10h65.332031c5.523438 0 10-4.476562 10-10s-4.476562-10-10-10zm0 0"/><path d="m422 168c-9.421875 0-18.242188 2.621094-25.773438 7.171875l-63.242187 22.210937c-.332031-16.257812-13.648437-29.382812-29.984375-29.382812-14.6875 0-26.933594 10.609375-29.496094 24.566406l-31.898437-18.699218s-22.175781-41.402344-22.238281-41.523438c-2.621094-4.890625-9.199219-6.699219-13.941407-3.863281l-25.371093 15.140625c-.679688-.421875-1.363282-.835938-2.058594-1.234375v-33.386719c0-5.523438-4.476563-10-10-10h-50c-5.519532 0-10 4.476562-10 10v33.386719c-.238282.136719-.476563.273437-.710938.417969l-27.945312-15.640626c-4.785156-2.675781-10.835938-1.003906-13.5625 3.757813 0 0-24.824219 43.382813-24.835938 43.398437-2.65625 4.644532-1.0625 10.972657 3.796875 13.691407l25.902344 14.5s-25.386719 13.460937-25.484375 13.511719c-4.667969 2.472656-6.710938 8.738281-4.128906 13.554687l23.605468 44.078125c2.601563 4.855469 8.636719 6.691406 13.5 4.113281l28.359376-15.039062c.5.300781 1 .597656 1.507812.890625v34.378906c0 5.523438 4.476562 10 10 10h50c5.523438 0 10-4.476562 10-10v-33.839844l26.238281 16.425782c.601563.378906 82.292969 57.390624 82.425781 57.480468 7.898438 5.515625 16.472657 9.933594 26.335938 9.933594 11.285156 0 21.484375-4.703125 28.765625-12.246094 0 0 104.058594-73.796875 104.117187-73.835937 15.269532-10.828125 26.117188-24.195313 26.117188-43.917969 0-27.570312-22.429688-50-50-50zm-109 100c-20.761719 0-37.871094 15.898438-39.8125 36.160156l-50.261719-35.300781 20.132813-35.179687c2.664062-4.65625 1.179687-10.589844-3.367188-13.4375l-25.148437-15.761719 19.703125-11.746094s54.019531 31.546875 54.75 31.785156c10.355468 3.394531 19.679687 5.132813 29.546875-.867187l55.414062-19.460938c-1.265625 4.386719-1.957031 9.019532-1.957031 13.808594 0 22.089844 14.402344 40.867188 34.308594 47.464844l-53.574219 37.988281c-2.265625-19.921875-19.214844-35.453125-39.734375-35.453125zm139-50c0 16.542969-13.457031 30-30 30s-30-13.457031-30-30 13.457031-30 30-30 30 13.457031 30 30zm-149-30c5.515625 0 10 4.484375 10 10s-4.484375 10-10 10-10-4.484375-10-10 4.484375-10 10-10zm-131.242188 55.886719c-2.492187 1.757812-5.160156 3.296875-7.929687 4.566406-3.550781 1.632813-5.828125 5.179687-5.828125 9.085937v30.460938h-30v-30.460938c0-3.90625-2.277344-7.457031-5.828125-9.085937-3.242187-1.488281-6.292969-3.296875-9.074219-5.378906-3.101562-2.316407-7.257812-2.636719-10.675781-.824219l-24.859375 13.183594-14.164062-26.445313 24.449218-12.964843c3.488282-1.847657 5.5625-5.582032 5.292969-9.523438-.097656-1.363281-.078125-6.078125.042969-7.597656.316406-3.898438-1.667969-7.625-5.082032-9.535156l-24.789062-13.878907 14.902344-26.035156 24.601562 13.769531c3.410156 1.90625 7.617188 1.652344 10.773438-.648437 2.671875-1.945313 5.5625-3.640625 8.582031-5.027344 3.550781-1.628906 5.828125-5.179687 5.828125-9.085937v-29.460938h30v29.460938c0 3.90625 2.273438 7.453124 5.824219 9.085937 3.445312 1.582031 6.710937 3.558594 9.710937 5.875 3.25 2.515625 7.710938 2.78125 11.238282.675781l21.90625-13.074218 14.152343 26.421874-23.042969 13.738282c-3.1875 1.898437-5.0625 5.410156-4.867187 9.117187.050781.953125-.003906 5.945313-.164063 7.601563-.367187 3.769531 1.429688 7.425781 4.640626 9.4375l23.527343 14.746094-14.894531 26.027343-23.207031-14.527343c-3.410157-2.140626-7.773438-2.019532-11.066407.300781zm121.242188 64.113281c0-11.027344 8.972656-20 20-20s20 8.972656 20 20-8.972656 20-20 20-20-8.972656-20-20zm0 0"/><path d="m432 218c0 5.523438-4.476562 10-10 10s-10-4.476562-10-10 4.476562-10 10-10 10 4.476562 10 10zm0 0"/></svg>