<svg id="Capa_1" enable-background="new 0 0 512 512" height="512" viewBox="0 0 512 512" width="512" xmlns="http://www.w3.org/2000/svg"><g><g><path d="m133.77 332.772-33.335-32.325-33.335 32.325h-59.6v111.118h185.87v-111.118z" fill="#d8e2f1"/></g><g><path d="m173.167 332.772h20.203v111.118h-20.203z" fill="#b9cbea"/></g><g><circle cx="100.435" cy="118.618" fill="#f1d0a5" r="50.508"/></g><g><path d="m122.929 73.396c3.377 6.775 5.286 14.409 5.286 22.494 0 27.895-22.613 50.508-50.508 50.508-8.084 0-15.718-1.909-22.493-5.286 8.275 16.603 25.411 28.015 45.222 28.015 27.895 0 50.508-22.613 50.508-50.508-.001-19.812-11.412-36.949-28.015-45.223z" fill="#f1b986"/></g><g><path d="m7.5 262.061c0-51.327 41.608-92.935 92.935-92.935s92.935 41.608 92.935 92.935z" fill="#5766cb"/></g><g><path d="m130.74 192.865c0 29.034-14.673 54.538-36.819 69.196h99.449c0-41.556-27.276-76.737-64.901-88.627 1.472 6.232 2.271 12.734 2.271 19.431z" fill="#3342aa"/></g><g><g><path d="m411.565 381.26h92.935v62.63h-92.935z" fill="#d8e2f1"/></g><g><path d="m229.736 381.26h181.829v62.63h-181.829z" fill="#5766cb"/></g></g><g><g><path d="m350.955 276.877h153.545v62.63h-153.545z" fill="#d8e2f1"/></g><g><path d="m229.736 276.877h121.219v62.63h-121.219z" fill="#80e29d"/></g></g><g><g><path d="m431.768 172.493h72.732v62.63h-72.732z" fill="#d8e2f1"/></g><g><path d="m229.736 172.493h202.032v62.63h-202.032z" fill="#dd5790"/></g></g><g><g><path d="m310.549 68.11h193.951v62.63h-193.951z" fill="#d8e2f1"/></g><g><path d="m229.736 68.11h80.813v62.63h-80.813z" fill="#ffe07d"/></g></g><g><path d="m193.37 325.272h-56.56l-31.153-30.209c-2.907-2.82-7.532-2.821-10.441 0l-31.154 30.209h-56.562c-4.143 0-7.5 3.358-7.5 7.5v111.118c0 4.142 3.357 7.5 7.5 7.5h185.87c4.143 0 7.5-3.358 7.5-7.5v-111.118c0-4.142-3.357-7.5-7.5-7.5zm-7.5 111.118h-170.87v-96.118h52.1c1.949 0 3.821-.759 5.221-2.116l28.115-27.262 28.114 27.262c1.398 1.357 3.271 2.116 5.221 2.116h52.1v96.118z"/><path d="m132.554 166.893c15.594-10.409 25.889-28.16 25.889-48.275 0-31.986-26.022-58.008-58.008-58.008s-58.009 26.022-58.009 58.008c0 20.115 10.296 37.866 25.89 48.275-39.677 13.426-68.316 51.015-68.316 95.168 0 4.142 3.357 7.5 7.5 7.5h125.274c4.143 0 7.5-3.358 7.5-7.5s-3.357-7.5-7.5-7.5h-117.448c3.812-43.609 40.527-77.935 85.109-77.935 44.581 0 81.297 34.326 85.108 77.935h-17.687c-4.143 0-7.5 3.358-7.5 7.5s3.357 7.5 7.5 7.5h25.513c4.143 0 7.5-3.358 7.5-7.5.001-44.153-28.638-81.742-68.315-95.168zm-75.127-48.275c0-23.714 19.294-43.008 43.009-43.008s43.008 19.293 43.008 43.008-19.293 43.008-43.008 43.008-43.009-19.293-43.009-43.008z"/><path d="m32.325 372.168c0 4.142 3.357 7.5 7.5 7.5h121.22c4.143 0 7.5-3.358 7.5-7.5s-3.357-7.5-7.5-7.5h-121.22c-4.142 0-7.5 3.358-7.5 7.5z"/><path d="m120.639 401.035h-80.814c-4.143 0-7.5 3.358-7.5 7.5s3.357 7.5 7.5 7.5h80.813c4.143 0 7.5-3.358 7.5-7.5s-3.357-7.5-7.499-7.5z"/><path d="m504.5 373.76h-274.765c-4.143 0-7.5 3.358-7.5 7.5v62.63c0 4.142 3.357 7.5 7.5 7.5h71.515c4.143 0 7.5-3.358 7.5-7.5s-3.357-7.5-7.5-7.5h-64.015v-47.63h166.829v47.63h-67.778c-4.143 0-7.5 3.358-7.5 7.5s3.357 7.5 7.5 7.5h168.214c4.143 0 7.5-3.358 7.5-7.5v-62.63c0-4.142-3.357-7.5-7.5-7.5zm-7.5 62.63h-77.936v-47.63h77.936z"/><path d="m504.5 269.376h-78.214c-4.143 0-7.5 3.358-7.5 7.5s3.357 7.5 7.5 7.5h70.714v47.63h-138.545v-47.63h32.795c4.143 0 7.5-3.358 7.5-7.5s-3.357-7.5-7.5-7.5h-161.515c-4.143 0-7.5 3.358-7.5 7.5v62.63c0 4.142 3.357 7.5 7.5 7.5h274.765c4.143 0 7.5-3.358 7.5-7.5v-62.63c0-4.142-3.357-7.5-7.5-7.5zm-267.265 15h106.22v47.63h-106.22z"/><path d="m504.5 164.993h-274.765c-4.143 0-7.5 3.358-7.5 7.5v62.63c0 4.142 3.357 7.5 7.5 7.5h274.765c4.143 0 7.5-3.358 7.5-7.5v-62.63c0-4.142-3.357-7.5-7.5-7.5zm-267.265 15h187.032v47.63h-187.032zm259.765 47.631h-57.732v-47.63h57.732z"/><path d="m504.5 60.61h-274.765c-4.143 0-7.5 3.358-7.5 7.5v62.63c0 4.142 3.357 7.5 7.5 7.5h274.765c4.143 0 7.5-3.358 7.5-7.5v-62.63c0-4.142-3.357-7.5-7.5-7.5zm-267.265 15h65.813v47.63h-65.813zm259.765 47.63h-178.951v-47.63h178.951z"/></g></g></svg>