<svg id="Layer_3" enable-background="new 0 0 96 96" height="512" viewBox="0 0 96 96" width="512" xmlns="http://www.w3.org/2000/svg"><path d="m36 3h57v53h-57z" fill="#63b2b9"/><path d="m29 13 3 5h-3v1c0 3.31-2.69 6-6 6v6h-6v-6c-1.66 0-3.16-.67-4.24-1.76-1.09-1.08-1.76-2.58-1.76-4.24v-3h1c2.76 0 5-2.24 5-5v-1h12z" fill="#f0f0f0"/><g fill="#d2d2d2"><path d="m42 36 12-12-5-5-9 9h-29c-4.42 0-8 3.58-8 8v20h27v-20z"/><path d="m27 28-3 5-4-4 4-2z"/><path d="m20 29-4 4-3-5 3-1z"/></g><path d="m10 56h20v31h-20z" fill="#f66533"/><path d="m73 13h14v10h-14z" fill="#f66533"/><path d="m32 5v2c0 1.66-1.34 3-3 3h-12v1c0 2.76-2.24 5-5 5h-1v-5c0-3.31 2.69-6 6-6z" fill="#f66533"/><path d="m23 32-2 3h-2l-2-3 3-3z" fill="#ec2f53"/><path d="m21 35 2 14-3 3-3-3 2-14z" fill="#ec2f53"/><path d="m10 58v3h-7v-5h7z" fill="#f0f0f0"/><path d="m55.17 17.17c1.56 1.56 1.56 4.1 0 5.66l-1.17 1.17-5-5 4-4z" fill="#f0f0f0"/><path d="m36 93h-10c0-3.31-2.69-6-6-6h10c3.31 0 6 2.69 6 6z" fill="#ec2f53"/><path d="m26 93h-6-10v-6h10c3.31 0 6 2.69 6 6z" fill="#ec2f53"/><path d="m55 33v9l-6 6-.66.05c-1.45-1.59-2.34-3.73-2.34-6.05 0-4.97 4.03-9 9-9z" fill="#f9aa3d"/><path d="m64 42h-9v-9c4.97 0 9 4.03 9 9z" fill="#d2d2d2"/><path d="m55 42h9c0 4.97-4.03 9-9 9-2.64 0-5.02-1.14-6.66-2.95l.66-.05z" fill="#ec2f53"/><path d="m93 89v4h-26v-4c0-2.21 1.79-4 4-4h18c2.21 0 4 1.79 4 4z" fill="#63b2b9"/><path d="m67 89v4h-26v-4c0-2.21 1.79-4 4-4h18c2.21 0 4 1.79 4 4z" fill="#63b2b9"/><path d="m87 71v9l-1 1v4h-6v-4h-5c-2.21 0-4-1.79-4-4v-2h-2l2-4c0-2.21.9-4.21 2.34-5.66 1.45-1.44 3.45-2.34 5.66-2.34 4.42 0 8 3.58 8 8z" fill="#f9aa3d"/><path d="m61 71v9l-1 1v4h-6v-4h-5c-2.21 0-4-1.79-4-4v-2h-2l2-4c0-2.21.9-4.21 2.34-5.66 1.45-1.44 3.45-2.34 5.66-2.34 4.42 0 8 3.58 8 8z" fill="#f9aa3d"/><path d="m31 86.08v-49.08h11c.265 0 .52-.105.707-.293l13.171-13.172c.944-.943 1.465-2.199 1.465-3.535s-.521-2.592-1.465-3.535l-2.171-2.172c-.187-.187-.442-.293-.707-.293s-.52.105-.707.293l-12.707 12.707h-12.424l-2.846-.948c-.103-.035-.21-.041-.316-.041v-.082c3.388-.486 6-3.408 6-6.929h2c.36 0 .693-.193.87-.507.178-.314.173-.699-.013-1.008l-2.857-4.762v-1.85c1.723-.444 3-2.013 3-3.873v-2c0-.553-.448-1-1-1h-15c-3.86 0-7 3.141-7 7v8c0 3.521 2.612 6.442 6 6.929v.082c-.106 0-.213.006-.316.041l-2.846.948h-1.838c-4.962 0-9 4.037-9 9v25c0 .553.448 1 1 1h6v25 6c0 .553.448 1 1 1h26c.552 0 1-.447 1-1 0-3.519-2.613-6.432-6-6.92zm22-69.666 1.464 1.465c.567.566.879 1.319.879 2.121s-.312 1.555-.879 2.121l-.464.465-3.586-3.586zm-27.499 12.141-1.7 2.833-2.113-2.114 2.389-1.194zm-5.634 7.445h.266l1.807 12.646-1.94 1.94-1.939-1.939zm.598-2h-.93l-1.248-1.873 1.713-1.713 1.713 1.713zm-8.465-23c0-2.757 2.243-5 5-5h14v1c0 1.103-.897 2-2 2h-12c-.552 0-1 .447-1 1v1c0 2.206-1.794 4-4 4zm0 8v-2c3.309 0 6-2.691 6-6h10v2c0 .182.049.359.143.515l2.091 3.485h-1.234c-.552 0-1 .447-1 1v1c0 2.757-2.243 5-5 5-.552 0-1 .447-1 1v1.882l-2 1-2-1v-1.882c0-.553-.448-1-1-1-2.757 0-5-2.243-5-5zm3.923 9.08 2.389 1.194-2.113 2.114-1.7-2.833zm-11.923 7.92c0-3.859 3.14-7 7-7h1.434l2.709 4.515c.158.264.43.44.735.478.306.036.612-.067.829-.285l.138-.138 1.112 1.667-1.947 13.622c-.045.312.06.626.283.849l3 3c.195.195.451.292.707.292s.512-.098.707-.293l3-3c.223-.223.328-.537.283-.849l-1.946-13.621 1.112-1.667.138.138c.188.188.442.292.706.292.041 0 .082-.003.122-.008.306-.037.577-.214.735-.478l2.709-4.514h12.434c.265 0 .52-.105.707-.293l8.293-8.293 3.586 3.586-11 11h-11.586c-.552 0-1 .447-1 1v19h-15c-.552 0-1 .447-1 1s.448 1 1 1h15v29h-8v-23c0-.553-.448-1-1-1s-1 .447-1 1v23h-8v-49c0-.553-.448-1-1-1s-1 .447-1 1v18h-5zm0 24v-3h5v3zm16 32h-9v-4h9c2.415 0 4.435 1.721 4.899 4zm6.92 0c-.224-1.556-.956-2.949-2.031-4h5.111c2.415 0 4.435 1.721 4.899 4z"/><path d="m93 2h-57c-.552 0-1 .447-1 1v21c0 .553.448 1 1 1s1-.447 1-1v-20h55v51h-55v-15c0-.553-.448-1-1-1s-1 .447-1 1v16c0 .553.448 1 1 1h57c.552 0 1-.447 1-1v-53c0-.552-.448-1-1-1z"/><path d="m89 84h-2v-2.586l.707-.707c.188-.187.293-.441.293-.707v-9c0-4.963-4.038-9-9-9-4.881 0-8.868 3.906-8.997 8.758l-1.898 3.795c-.155.31-.138.678.044.973s.504.474.851.474h1v1c0 2.757 2.243 5 5 5h4v2h-8c-1.641 0-3.088.806-4 2.031-.912-1.225-2.359-2.031-4-2.031h-2v-2.586l.707-.707c.188-.187.293-.441.293-.707v-9c0-4.963-4.038-9-9-9-4.881 0-8.868 3.906-8.997 8.758l-1.898 3.795c-.155.31-.138.678.044.973s.504.474.851.474h1v1c0 2.757 2.243 5 5 5h4v2h-8c-2.757 0-5 2.243-5 5v4c0 .553.448 1 1 1h52c.552 0 1-.447 1-1v-4c0-2.757-2.243-5-5-5zm-14-4c-1.654 0-3-1.346-3-3v-2c0-.553-.448-1-1-1h-.382l1.276-2.553c.07-.138.106-.291.106-.447 0-3.859 3.14-7 7-7s7 3.141 7 7v8.586l-.707.707c-.187.188-.293.442-.293.707v3h-4v-3c0-.553-.448-1-1-1zm-26 0c-1.654 0-3-1.346-3-3v-2c0-.553-.448-1-1-1h-.382l1.276-2.553c.07-.138.106-.291.106-.447 0-3.859 3.14-7 7-7s7 3.141 7 7v8.586l-.707.707c-.187.188-.293.442-.293.707v3h-4v-3c0-.553-.448-1-1-1zm-7 9c0-1.654 1.346-3 3-3h18c1.654 0 3 1.346 3 3v3h-24zm50 3h-24v-3c0-1.654 1.346-3 3-3h18c1.654 0 3 1.346 3 3z"/><path d="m41 9h8c.552 0 1-.447 1-1s-.448-1-1-1h-8c-.552 0-1 .447-1 1s.448 1 1 1z"/><path d="m41 13h8c.552 0 1-.447 1-1s-.448-1-1-1h-8c-.552 0-1 .447-1 1s.448 1 1 1z"/><path d="m88 7h-18c-.453 0-.85.305-.966.742l-3.14 11.776-1.945-5.835c-.136-.407-.518-.683-.949-.683h-4c-.552 0-1 .447-1 1s.448 1 1 1h3.279l2.772 8.316c.137.41.52.684.949.684h.031c.441-.014.822-.315.936-.742l3.801-14.258h17.232c.552 0 1-.447 1-1s-.448-1-1-1z"/><path d="m88 23v-10c0-.553-.448-1-1-1h-14c-.552 0-1 .447-1 1v10c0 .553.448 1 1 1h14c.552 0 1-.447 1-1zm-2-1h-12v-8h12z"/><path d="m45 42c0 5.514 4.486 10 10 10s10-4.486 10-10-4.486-10-10-10-10 4.487-10 10zm2 0c0-4.072 3.06-7.436 7-7.931v7.516l-5.312 5.312c-1.053-1.354-1.688-3.051-1.688-4.897zm8 8c-1.846 0-3.542-.634-4.898-1.688l5.312-5.312h7.516c-.494 3.94-3.858 7-7.93 7zm7.931-9h-6.931v-6.93c3.612.453 6.477 3.319 6.931 6.93z"/><path d="m71 29h-3c-.552 0-1 .447-1 1s.448 1 1 1h3c.552 0 1-.447 1-1s-.448-1-1-1z"/><path d="m88 29h-12c-.552 0-1 .447-1 1s.448 1 1 1h12c.552 0 1-.447 1-1s-.448-1-1-1z"/><path d="m71 34h-3c-.552 0-1 .447-1 1s.448 1 1 1h3c.552 0 1-.447 1-1s-.448-1-1-1z"/><path d="m88 34h-12c-.552 0-1 .447-1 1s.448 1 1 1h12c.552 0 1-.447 1-1s-.448-1-1-1z"/><path d="m71 39h-3c-.552 0-1 .447-1 1s.448 1 1 1h3c.552 0 1-.447 1-1s-.448-1-1-1z"/><path d="m88 39h-12c-.552 0-1 .447-1 1s.448 1 1 1h12c.552 0 1-.447 1-1s-.448-1-1-1z"/><path d="m71 44h-3c-.552 0-1 .447-1 1s.448 1 1 1h3c.552 0 1-.447 1-1s-.448-1-1-1z"/><path d="m88 44h-12c-.552 0-1 .447-1 1s.448 1 1 1h12c.552 0 1-.447 1-1s-.448-1-1-1z"/><path d="m71 49h-3c-.552 0-1 .447-1 1s.448 1 1 1h3c.552 0 1-.447 1-1s-.448-1-1-1z"/><circle cx="88" cy="50" r="1"/><circle cx="84" cy="50" r="1"/><circle cx="80" cy="50" r="1"/><circle cx="76" cy="50" r="1"/></svg>